<svg width="22" height="24" viewBox="0 0 22 24" fill="none" xmlns="http://www.w3.org/2000/svg">
<path fill-rule="evenodd" clip-rule="evenodd" d="M18.0601 23.7813C18.4011 23.9247 18.7672 23.999 19.1371 24C19.5189 24.0008 19.8969 23.9253 20.2491 23.778C20.7709 23.5672 21.217 23.2041 21.5293 22.736C21.8417 22.268 22.0057 21.7167 22.0001 21.154V4.99999C22.0001 4.34338 21.8708 3.6932 21.6195 3.08658C21.3683 2.47995 21 1.92875 20.5357 1.46446C20.0714 1.00017 19.5202 0.631868 18.9135 0.380595C18.3069 0.129321 17.6567 -7.62939e-06 17.0001 -7.62939e-06H5.00013C3.67404 -7.62939e-06 2.40227 0.526777 1.46459 1.46446C0.52691 2.40214 0.00012568 3.67391 0.00012568 4.99999V21.154C-0.00515681 21.7171 0.159497 22.2688 0.472584 22.7369C0.785672 23.205 1.23264 23.5678 1.75513 23.778C2.27248 23.9992 2.84447 24.0594 3.39654 23.9508C3.94862 23.8422 4.45515 23.5697 4.85013 23.169L11.0001 17.051L17.1501 23.165C17.4097 23.4285 17.719 23.638 18.0601 23.7813ZM3.98534 6.15799C4.0136 6.20256 4.04302 6.24517 4.07345 6.28591C4.02687 6.43747 4.00236 6.56636 3.98786 6.65107C3.98661 6.52935 3.98605 6.40686 3.98605 6.28361C3.98605 6.24367 3.98578 6.20129 3.98534 6.15799ZM3.84203 21.135C3.84181 21.1353 3.84211 21.1291 3.84362 21.115C3.84302 21.1276 3.84226 21.1346 3.84203 21.135ZM14.9434 5.2696L14.9423 5.26365C14.9431 5.26774 14.9435 5.26965 14.9434 5.2696Z" fill="white"/>
</svg>
