<svg width="43" height="43" viewBox="0 0 43 43" fill="none" xmlns="http://www.w3.org/2000/svg">
<g clip-path="url(#clip0_8_491)">
<path d="M39.9879 7.93901L15.2289 32.6963C15.0624 32.8634 14.8646 32.996 14.6468 33.0865C14.4289 33.177 14.1954 33.2235 13.9595 33.2235C13.7236 33.2235 13.4901 33.177 13.2722 33.0865C13.0544 32.996 12.8566 32.8634 12.6901 32.6963L3.11544 23.1126C2.94897 22.9455 2.75115 22.8129 2.53331 22.7224C2.31548 22.6319 2.08192 22.5854 1.84604 22.5854C1.61016 22.5854 1.3766 22.6319 1.15877 22.7224C0.940933 22.8129 0.743108 22.9455 0.576646 23.1126C0.409525 23.2791 0.276919 23.4769 0.186437 23.6948C0.0959548 23.9126 0.0493774 24.1461 0.0493774 24.382C0.0493774 24.6179 0.0959548 24.8515 0.186437 25.0693C0.276919 25.2871 0.409525 25.485 0.576646 25.6514L10.1549 35.2279C11.1653 36.2364 12.5346 36.8028 13.9622 36.8028C15.3898 36.8028 16.7591 36.2364 17.7695 35.2279L42.5267 10.476C42.6936 10.3096 42.826 10.1119 42.9163 9.8942C43.0066 9.67653 43.0531 9.44318 43.0531 9.20751C43.0531 8.97185 43.0066 8.73849 42.9163 8.52082C42.826 8.30315 42.6936 8.10544 42.5267 7.93901C42.3603 7.77189 42.1624 7.63929 41.9446 7.5488C41.7268 7.45832 41.4932 7.41174 41.2573 7.41174C41.0215 7.41174 40.7879 7.45832 40.5701 7.5488C40.3522 7.63929 40.1544 7.77189 39.9879 7.93901Z" fill="#C2DC6F"/>
</g>
<defs>
<clipPath id="clip0_8_491">
<rect width="43" height="43" fill="white"/>
</clipPath>
</defs>
</svg>
