<svg width="24" height="24" viewBox="0 0 24 24" fill="none" xmlns="http://www.w3.org/2000/svg">
<g clip-path="url(#clip0_8_1049)">
<path d="M23.119 0.871547C22.8065 0.559735 22.4286 0.321137 22.0128 0.172943C21.5969 0.0247496 21.1533 -0.0293485 20.714 0.0145469C17.921 0.284547 8.52803 1.44755 4.90004 5.07155C3.16581 6.8105 2.13743 9.13037 2.01351 11.5832C1.88959 14.0359 2.67891 16.4477 4.22904 18.3525L0.289043 22.2925C0.106885 22.4811 0.00609068 22.7337 0.0083691 22.9959C0.0106475 23.2581 0.115816 23.509 0.301224 23.6944C0.486632 23.8798 0.737444 23.9849 0.999641 23.9872C1.26184 23.9895 1.51444 23.8887 1.70304 23.7065L5.64304 19.7665C7.54754 21.3188 9.9599 22.1097 12.4137 21.9865C14.8676 21.8633 17.1886 20.8347 18.928 19.0995C22.604 15.4225 23.728 6.05855 23.987 3.27655C24.0294 2.83642 23.9735 2.39238 23.8234 1.97648C23.6732 1.56058 23.4327 1.18319 23.119 0.871547ZM17.519 17.6815C16.1555 19.04 14.3442 19.8559 12.4233 19.9768C10.5024 20.0977 8.60309 19.5154 7.08003 18.3385L16.712 8.70655C16.8942 8.51794 16.995 8.26534 16.9927 8.00315C16.9904 7.74095 16.8853 7.49014 16.6998 7.30473C16.5144 7.11932 16.2636 7.01415 16.0014 7.01187C15.7392 7.00959 15.4866 7.11039 15.298 7.29255L5.66104 16.9245C4.48401 15.4016 3.90157 13.5022 4.02247 11.5812C4.14337 9.66025 4.95935 7.84893 6.31804 6.48555C8.82703 3.97755 15.745 2.49955 20.907 2.00455C21.0532 1.99032 21.2008 2.00848 21.3391 2.05773C21.4775 2.10697 21.6034 2.18611 21.7077 2.2895C21.8121 2.39289 21.8924 2.51799 21.9429 2.65592C21.9934 2.79385 22.0129 2.94122 22 3.08755C21.5 8.47455 20.059 15.1365 17.514 17.6815H17.519Z" fill="#748042"/>
</g>
<defs>
<clipPath id="clip0_8_1049">
<rect width="24" height="24" fill="white"/>
</clipPath>
</defs>
</svg>
