<svg width="24" height="24" viewBox="0 0 24 24" fill="none" xmlns="http://www.w3.org/2000/svg">
<g clip-path="url(#clip0_8_355)">
<path d="M3.99988 6.00018C3.60563 6.00121 3.21509 5.92406 2.85086 5.77318C2.48662 5.6223 2.15592 5.40069 1.87788 5.12118L0.333881 3.74718C0.135764 3.57054 0.0159291 3.32244 0.00073869 3.05745C-0.0144518 2.79246 0.0762464 2.53229 0.252881 2.33418C0.429515 2.13606 0.677616 2.01623 0.942605 2.00104C1.20759 1.98584 1.46776 2.07654 1.66588 2.25318L3.25088 3.66718C3.34162 3.76907 3.45225 3.85132 3.57596 3.90887C3.69967 3.96641 3.83385 3.99803 3.97024 4.00177C4.10663 4.00552 4.24234 3.98132 4.36902 3.93065C4.49571 3.87999 4.61069 3.80394 4.70688 3.70718L8.31088 0.276177C8.50467 0.103647 8.75794 0.0131959 9.01718 0.0239279C9.27643 0.0346599 9.52135 0.145735 9.70022 0.333692C9.87909 0.521649 9.97791 0.771771 9.97579 1.03123C9.97367 1.29069 9.87079 1.53916 9.68888 1.72418L6.09988 5.13818C5.82365 5.4128 5.49601 5.63028 5.13567 5.77818C4.77534 5.92609 4.38939 6.00153 3.99988 6.00018ZM23.9999 4.00018C23.9999 3.73496 23.8945 3.48061 23.707 3.29307C23.5195 3.10553 23.2651 3.00018 22.9999 3.00018H12.9999C12.7347 3.00018 12.4803 3.10553 12.2928 3.29307C12.1052 3.48061 11.9999 3.73496 11.9999 4.00018C11.9999 4.26539 12.1052 4.51975 12.2928 4.70728C12.4803 4.89482 12.7347 5.00018 12.9999 5.00018H22.9999C23.2651 5.00018 23.5195 4.89482 23.707 4.70728C23.8945 4.51975 23.9999 4.26539 23.9999 4.00018ZM6.09988 13.1382L9.68888 9.72418C9.78905 9.635 9.87026 9.52658 9.92768 9.40537C9.98509 9.28416 10.0175 9.15265 10.0231 9.01864C10.0286 8.88464 10.0072 8.75089 9.95997 8.62535C9.91277 8.49982 9.8408 8.38506 9.74834 8.2879C9.65588 8.19075 9.54482 8.11318 9.42178 8.05983C9.29873 8.00647 9.16621 7.97841 9.03209 7.97732C8.89798 7.97622 8.76502 8.00212 8.64112 8.05346C8.51722 8.1048 8.40491 8.18054 8.31088 8.27618L4.71088 11.7072C4.52051 11.8892 4.26727 11.9908 4.00388 11.9908C3.74049 11.9908 3.48725 11.8892 3.29688 11.7072L1.70688 10.1222C1.51828 9.94002 1.26568 9.83922 1.00348 9.8415C0.741283 9.84378 0.49047 9.94895 0.305062 10.1344C0.119654 10.3198 0.014485 10.5706 0.0122065 10.8328C0.00992811 11.095 0.110723 11.3476 0.292881 11.5362L1.87788 13.1212C2.43755 13.681 3.1958 13.9969 3.98738 14.0001C4.77896 14.0033 5.53972 13.6935 6.10388 13.1382H6.09988ZM23.9999 12.0002C23.9999 11.735 23.8945 11.4806 23.707 11.2931C23.5195 11.1055 23.2651 11.0002 22.9999 11.0002H12.9999C12.7347 11.0002 12.4803 11.1055 12.2928 11.2931C12.1052 11.4806 11.9999 11.735 11.9999 12.0002C11.9999 12.2654 12.1052 12.5197 12.2928 12.7073C12.4803 12.8948 12.7347 13.0002 12.9999 13.0002H22.9999C23.2651 13.0002 23.5195 12.8948 23.707 12.7073C23.8945 12.5197 23.9999 12.2654 23.9999 12.0002ZM6.09988 21.1382L9.68488 17.7242C9.78505 17.635 9.86626 17.5266 9.92368 17.4054C9.98109 17.2842 10.0135 17.1526 10.0191 17.0186C10.0246 16.8846 10.0032 16.7509 9.95597 16.6254C9.90877 16.4998 9.8368 16.3851 9.74434 16.2879C9.65188 16.1907 9.54082 16.1132 9.41778 16.0598C9.29473 16.0065 9.16221 15.9784 9.0281 15.9773C8.89398 15.9762 8.76102 16.0021 8.63712 16.0535C8.51322 16.1048 8.40091 16.1805 8.30688 16.2762L4.70688 19.7072C4.61069 19.8039 4.49571 19.88 4.36902 19.9307C4.24234 19.9813 4.10663 20.0055 3.97024 20.0018C3.83385 19.998 3.69967 19.9664 3.57596 19.9089C3.45225 19.8513 3.34162 19.7691 3.25088 19.6672L1.66588 18.2532C1.46776 18.0765 1.20759 17.9858 0.942605 18.001C0.677616 18.0162 0.429515 18.1361 0.252881 18.3342C0.0762464 18.5323 -0.0144518 18.7925 0.00073869 19.0575C0.0159291 19.3224 0.135764 19.5705 0.333881 19.7472L1.87788 21.1212C2.43755 21.681 3.1958 21.9969 3.98738 22.0001C4.77896 22.0033 5.53972 21.6935 6.10388 21.1382H6.09988ZM23.9999 20.0002C23.9999 19.735 23.8945 19.4806 23.707 19.2931C23.5195 19.1055 23.2651 19.0002 22.9999 19.0002H12.9999C12.7347 19.0002 12.4803 19.1055 12.2928 19.2931C12.1052 19.4806 11.9999 19.735 11.9999 20.0002C11.9999 20.2654 12.1052 20.5198 12.2928 20.7073C12.4803 20.8948 12.7347 21.0002 12.9999 21.0002H22.9999C23.2651 21.0002 23.5195 20.8948 23.707 20.7073C23.8945 20.5198 23.9999 20.2654 23.9999 20.0002Z" fill="#21231F"/>
</g>
<defs>
<clipPath id="clip0_8_355">
<rect width="24" height="24" fill="white"/>
</clipPath>
</defs>
</svg>
