<svg width="24" height="24" viewBox="0 0 24 24" fill="none" xmlns="http://www.w3.org/2000/svg">
<g clip-path="url(#clip0_8_1048)">
<path d="M3.99988 6.00006C3.60563 6.00109 3.21509 5.92394 2.85086 5.77306C2.48662 5.62218 2.15592 5.40057 1.87788 5.12106L0.333881 3.74706C0.135764 3.57042 0.0159291 3.32232 0.00073869 3.05733C-0.0144518 2.79234 0.0762464 2.53217 0.252881 2.33406C0.429515 2.13594 0.677616 2.0161 0.942605 2.00091C1.20759 1.98572 1.46776 2.07642 1.66588 2.25306L3.25088 3.66706C3.34162 3.76895 3.45225 3.8512 3.57596 3.90874C3.69967 3.96629 3.83385 3.9979 3.97024 4.00165C4.10663 4.0054 4.24234 3.9812 4.36902 3.93053C4.49571 3.87987 4.61069 3.80382 4.70688 3.70706L8.31088 0.276055C8.50467 0.103525 8.75794 0.0130738 9.01718 0.0238058C9.27643 0.0345378 9.52135 0.145613 9.70022 0.33357C9.87909 0.521527 9.97791 0.771649 9.97579 1.03111C9.97367 1.29056 9.87079 1.53904 9.68888 1.72405L6.09988 5.13806C5.82365 5.41267 5.49601 5.63015 5.13567 5.77806C4.77534 5.92597 4.38939 6.00141 3.99988 6.00006ZM23.9999 4.00006C23.9999 3.73484 23.8945 3.48048 23.707 3.29295C23.5195 3.10541 23.2651 3.00006 22.9999 3.00006H12.9999C12.7347 3.00006 12.4803 3.10541 12.2928 3.29295C12.1052 3.48048 11.9999 3.73484 11.9999 4.00006C11.9999 4.26527 12.1052 4.51963 12.2928 4.70716C12.4803 4.8947 12.7347 5.00006 12.9999 5.00006H22.9999C23.2651 5.00006 23.5195 4.8947 23.707 4.70716C23.8945 4.51963 23.9999 4.26527 23.9999 4.00006ZM6.09988 13.1381L9.68888 9.72406C9.78905 9.63488 9.87026 9.52646 9.92768 9.40525C9.98509 9.28404 10.0175 9.15252 10.0231 9.01852C10.0286 8.88452 10.0072 8.75077 9.95997 8.62523C9.91277 8.49969 9.8408 8.38493 9.74834 8.28778C9.65588 8.19063 9.54482 8.11306 9.42178 8.0597C9.29873 8.00635 9.16621 7.97829 9.03209 7.97719C8.89798 7.9761 8.76502 8.00199 8.64112 8.05334C8.51722 8.10468 8.40491 8.18042 8.31088 8.27606L4.71088 11.7071C4.52051 11.8891 4.26727 11.9907 4.00388 11.9907C3.74049 11.9907 3.48725 11.8891 3.29688 11.7071L1.70688 10.1221C1.51828 9.9399 1.26568 9.8391 1.00348 9.84138C0.741283 9.84366 0.49047 9.94883 0.305062 10.1342C0.119654 10.3196 0.014485 10.5705 0.0122065 10.8327C0.00992811 11.0949 0.110723 11.3475 0.292881 11.5361L1.87788 13.1211C2.43755 13.6809 3.1958 13.9968 3.98738 14C4.77896 14.0031 5.53972 13.6933 6.10388 13.1381H6.09988ZM23.9999 12.0001C23.9999 11.7348 23.8945 11.4805 23.707 11.2929C23.5195 11.1054 23.2651 11.0001 22.9999 11.0001H12.9999C12.7347 11.0001 12.4803 11.1054 12.2928 11.2929C12.1052 11.4805 11.9999 11.7348 11.9999 12.0001C11.9999 12.2653 12.1052 12.5196 12.2928 12.7072C12.4803 12.8947 12.7347 13.0001 12.9999 13.0001H22.9999C23.2651 13.0001 23.5195 12.8947 23.707 12.7072C23.8945 12.5196 23.9999 12.2653 23.9999 12.0001ZM6.09988 21.1381L9.68488 17.7241C9.78505 17.6349 9.86626 17.5265 9.92368 17.4053C9.98109 17.284 10.0135 17.1525 10.0191 17.0185C10.0246 16.8845 10.0032 16.7508 9.95597 16.6252C9.90877 16.4997 9.8368 16.3849 9.74434 16.2878C9.65188 16.1906 9.54082 16.1131 9.41778 16.0597C9.29473 16.0063 9.16221 15.9783 9.0281 15.9772C8.89398 15.9761 8.76102 16.002 8.63712 16.0533C8.51322 16.1047 8.40091 16.1804 8.30688 16.2761L4.70688 19.7071C4.61069 19.8038 4.49571 19.8799 4.36902 19.9305C4.24234 19.9812 4.10663 20.0054 3.97024 20.0017C3.83385 19.9979 3.69967 19.9663 3.57596 19.9087C3.45225 19.8512 3.34162 19.769 3.25088 19.6671L1.66588 18.2531C1.46776 18.0764 1.20759 17.9857 0.942605 18.0009C0.677616 18.0161 0.429515 18.1359 0.252881 18.3341C0.0762464 18.5322 -0.0144518 18.7923 0.00073869 19.0573C0.0159291 19.3223 0.135764 19.5704 0.333881 19.7471L1.87788 21.1211C2.43755 21.6809 3.1958 21.9968 3.98738 22C4.77896 22.0031 5.53972 21.6933 6.10388 21.1381H6.09988ZM23.9999 20.0001C23.9999 19.7348 23.8945 19.4805 23.707 19.2929C23.5195 19.1054 23.2651 19.0001 22.9999 19.0001H12.9999C12.7347 19.0001 12.4803 19.1054 12.2928 19.2929C12.1052 19.4805 11.9999 19.7348 11.9999 20.0001C11.9999 20.2653 12.1052 20.5196 12.2928 20.7072C12.4803 20.8947 12.7347 21.0001 12.9999 21.0001H22.9999C23.2651 21.0001 23.5195 20.8947 23.707 20.7072C23.8945 20.5196 23.9999 20.2653 23.9999 20.0001Z" fill="#748042"/>
</g>
<defs>
<clipPath id="clip0_8_1048">
<rect width="24" height="24" fill="white"/>
</clipPath>
</defs>
</svg>
