<svg width="24" height="25" viewBox="0 0 24 25" fill="none" xmlns="http://www.w3.org/2000/svg">
<g clip-path="url(#clip0_8_199)">
<path d="M23 11.5H13V1.5C13 1.23478 12.8946 0.98043 12.7071 0.792893C12.5196 0.605357 12.2652 0.5 12 0.5V0.5C11.7348 0.5 11.4804 0.605357 11.2929 0.792893C11.1054 0.98043 11 1.23478 11 1.5V11.5H1C0.734784 11.5 0.48043 11.6054 0.292893 11.7929C0.105357 11.9804 0 12.2348 0 12.5H0C0 12.7652 0.105357 13.0196 0.292893 13.2071C0.48043 13.3946 0.734784 13.5 1 13.5H11V23.5C11 23.7652 11.1054 24.0196 11.2929 24.2071C11.4804 24.3946 11.7348 24.5 12 24.5C12.2652 24.5 12.5196 24.3946 12.7071 24.2071C12.8946 24.0196 13 23.7652 13 23.5V13.5H23C23.2652 13.5 23.5196 13.3946 23.7071 13.2071C23.8946 13.0196 24 12.7652 24 12.5C24 12.2348 23.8946 11.9804 23.7071 11.7929C23.5196 11.6054 23.2652 11.5 23 11.5Z" fill="white"/>
</g>
<defs>
<clipPath id="clip0_8_199">
<rect width="24" height="24" fill="white" transform="translate(0 0.5)"/>
</clipPath>
</defs>
</svg>
