<svg width="128" height="79" viewBox="0 0 128 79" fill="none" xmlns="http://www.w3.org/2000/svg">
<path d="M69.2061 18.3419L68.8451 18.7029C68.8255 18.6735 68.8061 18.644 68.7868 18.6143L69.2061 18.3419ZM69.2061 18.3419C69.2985 18.4842 69.395 18.6235 69.4955 18.7596L69.5596 18.6955L69.2061 18.3419ZM64.8686 22.6793C65.2075 22.522 65.5605 22.408 65.923 22.332L65.2221 23.0329L64.8686 22.6793ZM64.8686 22.6793L65.6724 21.8756C65.3265 21.9578 64.9872 22.073 64.658 22.2258L64.8686 22.6793ZM60.6643 26.8835L60.3033 27.2445C60.2837 27.215 60.2643 27.1855 60.245 27.1558L60.6643 26.8835ZM60.6643 26.8835C60.7568 27.0258 60.8533 27.1651 60.9537 27.3012L61.0179 27.237L60.6643 26.8835ZM56.3268 31.2209C56.6658 31.0634 57.0189 30.9494 57.3816 30.8732L56.6804 31.5744L56.3268 31.2209ZM56.3268 31.2209L57.1309 30.4169C56.7849 30.4992 56.4455 30.6145 56.1162 30.7674L56.3268 31.2209ZM47.0504 40.4902L51.7615 35.7792C51.7418 35.7497 51.7223 35.72 51.703 35.6901L52.1225 35.4182L52.4761 35.7717L52.4116 35.8363C53.0898 36.7572 53.9475 37.5337 54.9349 38.1178C56.0684 38.7882 57.3418 39.1869 58.6553 39.2824M47.0504 40.4902L46.7031 40.1305C46.7022 40.1314 46.7012 40.1323 46.7003 40.1332M47.0504 40.4902L46.6969 40.1366L46.7003 40.1332M47.0504 40.4902C46.7282 40.8013 46.2967 40.9735 45.8488 40.9696C45.4009 40.9657 44.9724 40.7861 44.6556 40.4693C44.3389 40.1526 44.1592 39.7241 44.1553 39.2762C44.1514 38.8283 44.3236 38.3968 44.6348 38.0746L49.3459 33.3637C49.3754 33.3834 49.4052 33.4029 49.435 33.4222L49.7069 33.0026L49.3534 32.6491L49.2888 32.7136C48.3678 32.0355 47.5913 31.1777 47.0073 30.1903C46.3368 29.0569 45.9381 27.7835 45.8426 26.4701C46.0538 23.8445 47.1031 21.3562 48.8357 19.372C48.9948 19.1883 49.1915 19.0409 49.4126 18.9399C49.6337 18.8389 49.8739 18.7866 50.1169 18.7866C50.36 18.7866 50.6002 18.8389 50.8213 18.9399C51.0424 19.0409 51.2391 19.1883 51.3982 19.372C52.9146 21.0971 54.8863 24.7472 54.2586 27.744L67.1954 30.2393M46.7003 40.1332L51.769 35.0646L52.206 34.6276L52.5421 35.1462C53.2163 36.1865 54.1225 37.0563 55.1895 37.6874C56.2456 38.3121 57.4307 38.6861 58.6537 38.7809M46.7003 40.1332C46.4727 40.3516 46.1687 40.4724 45.8531 40.4697C45.5363 40.4669 45.2332 40.3398 45.0092 40.1158C44.7852 39.8918 44.6581 39.5887 44.6553 39.2719C44.6526 38.9564 44.7734 38.6524 44.9918 38.4248L50.0605 33.3562L50.4975 32.9192L49.9789 32.5831C48.9386 31.9088 48.0687 31.0027 47.4376 29.9358C46.8129 28.8798 46.4389 27.6947 46.3442 26.4718C46.5539 23.9671 47.5586 21.5947 49.2123 19.7009L49.2137 19.6993C49.3258 19.5698 49.4645 19.4659 49.6204 19.3946C49.7762 19.3234 49.9456 19.2866 50.1169 19.2866C50.2883 19.2866 50.4576 19.3234 50.6135 19.3946C50.7693 19.4659 50.908 19.5698 51.0202 19.6993L51.0227 19.7022C51.8319 20.6228 52.791 22.1385 53.3669 23.797C53.9459 25.4642 54.1084 27.1874 53.4578 28.5878L54.2647 29.1521L58.6023 24.8147L59.0393 24.3776L58.5206 24.0415C57.4804 23.3673 56.6105 22.4612 55.9794 21.3942C55.3547 20.3382 54.9807 19.1532 54.8859 17.9303C55.0956 15.4256 56.1004 13.0531 57.7541 11.1594L57.7555 11.1578C57.8676 11.0282 58.0063 10.9243 58.1622 10.8531C58.318 10.7819 58.4874 10.745 58.6587 10.745C58.8301 10.745 58.9994 10.7819 59.1553 10.8531C59.3111 10.9243 59.4498 11.0282 59.562 11.1578L59.5619 11.1578L59.5644 11.1606C60.3737 12.0812 61.3327 13.597 61.9087 15.2555C62.4876 16.9227 62.6502 18.6459 61.9995 20.0463L62.8065 20.6105L67.144 16.2731L67.581 15.8361L67.0624 15.5C66.0221 14.8258 65.1523 13.9196 64.5212 12.8527C63.8965 11.7967 63.5225 10.6116 63.4277 9.38874C63.6374 6.88407 64.6422 4.51158 66.2958 2.61785L66.2972 2.61623C66.4094 2.48669 66.5481 2.38278 66.7039 2.31157C66.8598 2.24035 67.0291 2.20349 67.2005 2.20349C67.3718 2.20349 67.5412 2.24035 67.697 2.31157C67.8529 2.38278 67.9916 2.48669 68.1037 2.61623L68.1037 2.61624L68.1062 2.61907C68.9154 3.53969 69.8745 5.05546 70.4504 6.71394C71.0294 8.38112 71.192 10.1043 70.5413 11.5047L71.3476 12.0697L73.5428 9.88302L73.7085 9.71798L73.6881 9.48502C73.3866 6.05363 74.3427 4.10381 75.9807 2.86451C77.6762 1.58173 80.1762 0.995833 83.1246 0.514314C83.3258 0.484295 83.5312 0.501637 83.7246 0.564975C83.9188 0.628589 84.0953 0.73683 84.2401 0.881011C84.3849 1.02519 84.4939 1.2013 84.5583 1.39521C84.6226 1.58878 84.6407 1.79471 84.6112 1.99653C84.4265 3.23456 84.12 4.80021 83.6261 6.28723C83.1287 7.7845 82.4582 9.14925 81.5747 10.0328C80.9604 10.647 79.9996 11.0262 78.8901 11.2361C77.791 11.444 76.6104 11.4739 75.6238 11.4412L75.4071 11.434L75.2537 11.5873L73.0568 13.7842L73.6209 14.5913C75.0223 13.9405 76.7456 14.1032 78.4126 14.6821C80.0709 15.258 81.5863 16.217 82.5069 17.0263L82.5098 17.0287C82.6393 17.1409 82.7432 17.2796 82.8145 17.4354C82.8857 17.5913 82.9225 17.7606 82.9225 17.9319C82.9225 18.1033 82.8857 18.2726 82.8145 18.4285C82.7432 18.5843 82.6393 18.723 82.5098 18.8351L82.5085 18.8362C80.6138 20.4876 78.2412 21.49 75.7371 21.6978M58.6537 38.7809C58.641 38.7819 58.6283 38.7829 58.6156 38.784L58.6553 39.2824M58.6537 38.7809C61.1578 38.573 63.5303 37.5706 65.425 35.9193L65.4263 35.9182C65.5558 35.8061 65.6597 35.6674 65.7309 35.5115C65.8021 35.3557 65.839 35.1864 65.839 35.015C65.839 34.8437 65.8021 34.6744 65.7309 34.5185C65.6597 34.3627 65.5558 34.224 65.4263 34.1118L65.4225 34.1085C64.5024 33.2957 62.9874 32.3369 61.3293 31.7621C59.6627 31.1843 57.9391 31.0234 56.5374 31.6744L55.9733 30.8673L60.3108 26.5299L60.7473 26.0934L61.0836 26.6111C61.7586 27.6502 62.665 28.5187 63.7319 29.1487C64.788 29.7723 65.9729 30.1453 67.1954 30.2393M58.6537 38.7809C58.6663 38.7818 58.6789 38.7828 58.6916 38.7837L58.6553 39.2824M58.6553 39.2824L67.1954 30.2393M67.1954 30.2393C67.1827 30.2404 67.17 30.2414 67.1573 30.2424L67.1971 30.7408L67.2331 30.2421C67.2205 30.2412 67.2079 30.2403 67.1954 30.2393ZM67.1954 30.2393C69.6995 30.0315 72.072 29.0291 73.9668 27.3778L73.968 27.3767C74.0976 27.2645 74.2015 27.1258 74.2727 26.97C74.3439 26.8142 74.3808 26.6448 74.3808 26.4735C74.3808 26.3021 74.3439 26.1328 74.2727 25.977C74.2015 25.8211 74.0976 25.6824 73.968 25.5703L73.9652 25.5678C73.0445 24.7586 71.5291 23.7995 69.8708 23.2236C68.2039 22.6447 66.4805 22.4821 65.0792 23.1328L64.515 22.3258L68.8525 17.9884L69.2891 17.5518L69.6254 18.0696C70.3003 19.1086 71.2068 19.9772 72.2737 20.6072C73.3298 21.2307 74.5146 21.6038 75.7371 21.6978M75.7371 21.6978C75.7245 21.6988 75.7118 21.6999 75.6991 21.7009L75.7388 22.1993L75.7748 21.7006C75.7623 21.6997 75.7497 21.6987 75.7371 21.6978Z" stroke="#748042"/>
<path d="M46.0718 10.3863C44.1414 8.45596 43.2684 4.5781 42.8943 2.0703C42.8532 1.79084 42.8782 1.50563 42.9672 1.23756C43.0563 0.9695 43.2069 0.72604 43.4071 0.526718C43.6072 0.327397 43.8513 0.177763 44.1198 0.0898222C44.3882 0.00188142 44.6735 -0.021918 44.9528 0.0203335C50.833 0.980403 55.4353 2.41197 54.81 9.52878L57.0053 11.7154C55.5463 8.57554 57.8184 4.22277 59.5183 2.28897C59.6773 2.10521 59.8741 1.95782 60.0952 1.8568C60.3162 1.75578 60.5565 1.70349 60.7995 1.70349C61.0426 1.70349 61.2828 1.75578 61.5039 1.8568C61.7249 1.95782 61.9217 2.10521 62.0808 2.28897C63.8134 4.27308 64.8626 6.76137 65.0738 9.38699C64.9783 10.7004 64.5797 11.9738 63.9092 13.1073C63.2387 14.2407 62.3146 15.2033 61.2095 15.9196L65.547 20.257C64.0881 17.1171 66.3602 12.7643 68.06 10.8305C68.2191 10.6467 68.4159 10.4994 68.6369 10.3983C68.858 10.2973 69.0982 10.245 69.3413 10.245C69.5844 10.245 69.8246 10.2973 70.0456 10.3983C70.2667 10.4994 70.4635 10.6467 70.6226 10.8305C72.3552 12.8146 73.4044 15.3029 73.6156 17.9285C73.5201 19.242 73.1214 20.5154 72.451 21.6488C71.7805 22.7823 70.8564 23.7449 69.7513 24.4611L74.0888 28.7985C72.6299 25.6586 74.902 21.3059 76.6018 19.372C76.7609 19.1883 76.9576 19.0409 77.1787 18.9399C77.3998 18.8389 77.64 18.7866 77.8831 18.7866C78.1261 18.7866 78.3663 18.8389 78.5874 18.9399C78.8085 19.0409 79.0052 19.1883 79.1643 19.372C80.8969 21.3562 81.9462 23.8445 82.1574 26.4701C82.0619 27.7835 81.6632 29.0569 80.9927 30.1903C80.3223 31.3238 79.3982 32.2864 78.2931 33.0026L83.3652 38.0746C83.6764 38.3968 83.8486 38.8283 83.8447 39.2762C83.8408 39.7241 83.6611 40.1526 83.3444 40.4693C83.0276 40.7861 82.5991 40.9657 82.1512 40.9696C81.7033 40.9735 81.2718 40.8013 80.9496 40.4902L75.8775 35.4182C75.1612 36.5233 74.1986 37.4473 73.0651 38.1178C71.9316 38.7882 70.6582 39.1869 69.3447 39.2824C66.7198 39.0731 64.2316 38.0263 62.2465 36.2963C62.0627 36.1372 61.9153 35.9404 61.8143 35.7194C61.7133 35.4983 61.661 35.2581 61.661 35.015C61.661 34.772 61.7133 34.5318 61.8143 34.3107C61.9153 34.0896 62.0627 33.8929 62.2465 33.7338C64.1804 32.0255 68.5315 29.762 71.6732 31.2209L67.3357 26.8835C66.6187 27.9873 65.6557 28.91 64.5223 29.5793C63.3889 30.2485 62.1158 30.6461 60.8029 30.7408C58.1781 30.5316 55.6898 29.4848 53.7047 27.7547C53.521 27.5956 53.3736 27.3989 53.2725 27.1778C53.1715 26.9567 53.1192 26.7165 53.1192 26.4735C53.1192 26.2304 53.1715 25.9902 53.2725 25.7692C53.3736 25.5481 53.521 25.3513 53.7047 25.1923C55.6386 23.4925 59.9898 21.2204 63.1314 22.6793L58.7939 18.3419C58.0769 19.4458 57.1139 20.3685 55.9805 21.0377C54.8471 21.707 53.574 22.1046 52.2612 22.1993C49.6363 21.99 47.148 20.9433 45.163 19.2132C44.9792 19.0541 44.8318 18.8573 44.7308 18.6363C44.6297 18.4152 44.5775 18.175 44.5775 17.9319C44.5775 17.6889 44.6297 17.4487 44.7308 17.2276C44.8318 17.0065 44.9792 16.8098 45.163 16.6507C47.0968 14.9509 51.448 12.6789 54.5897 14.1378L52.3927 11.9409C50.382 12.0075 47.5085 11.823 46.0718 10.3863Z" fill="#C2DC6F"/>
<path d="M9.49666 55.6417C10.5367 55.6417 11.3767 55.8017 12.0167 56.1217C12.6567 56.4257 13.2567 56.7857 13.8167 57.2017C14.0247 57.3617 14.1847 57.4417 14.2967 57.4417C14.6007 57.4417 14.8007 56.9537 14.8967 55.9777H15.4487C15.4167 56.5697 15.3927 57.2897 15.3767 58.1377C15.3607 58.9857 15.3527 60.1057 15.3527 61.4977H14.8007C14.6887 60.8257 14.5527 60.1777 14.3927 59.5537C14.2327 58.9297 13.9687 58.3937 13.6007 57.9457C13.1367 57.3537 12.5287 56.8977 11.7767 56.5777C11.0247 56.2417 10.2487 56.0737 9.44866 56.0737C8.64866 56.0737 7.92066 56.2737 7.26466 56.6737C6.62466 57.0577 6.07266 57.6177 5.60866 58.3537C5.14466 59.0897 4.78466 59.9777 4.52866 61.0177C4.28866 62.0417 4.16866 63.2017 4.16866 64.4977C4.16866 67.3777 4.63266 69.4897 5.56066 70.8337C6.48866 72.1617 7.92866 72.8257 9.88066 72.8257C10.4567 72.8257 10.9527 72.7457 11.3687 72.5857C11.8007 72.4097 12.1367 72.2417 12.3767 72.0817C12.6807 71.8737 12.8727 71.6817 12.9527 71.5057C13.0327 71.3137 13.0727 71.0657 13.0727 70.7617V68.4577C13.0727 67.8017 13.0087 67.3137 12.8807 66.9937C12.7527 66.6737 12.5127 66.4577 12.1607 66.3457C11.8247 66.2337 11.3207 66.1697 10.6487 66.1537V65.6737C10.9367 65.6897 11.2727 65.7057 11.6567 65.7217C12.0407 65.7217 12.4407 65.7297 12.8567 65.7457C13.2887 65.7457 13.6807 65.7457 14.0327 65.7457C14.5607 65.7457 15.0327 65.7377 15.4487 65.7217C15.8807 65.7057 16.2407 65.6897 16.5287 65.6737V66.1537C16.1767 66.1697 15.9127 66.2257 15.7367 66.3217C15.5607 66.4177 15.4407 66.6097 15.3767 66.8977C15.3287 67.1857 15.3047 67.6257 15.3047 68.2177V72.9697H14.8247C14.8087 72.6977 14.7447 72.4017 14.6327 72.0817C14.5367 71.7617 14.3847 71.6017 14.1767 71.6017C14.0807 71.6017 13.9847 71.6257 13.8887 71.6737C13.7927 71.7217 13.6247 71.8337 13.3847 72.0097C12.8567 72.4097 12.2967 72.7297 11.7047 72.9697C11.1127 73.1937 10.4247 73.3057 9.64066 73.3057C7.99266 73.3057 6.57666 72.9697 5.39266 72.2977C4.22466 71.6097 3.32866 70.6257 2.70466 69.3457C2.08066 68.0657 1.76866 66.5377 1.76866 64.7617C1.76866 62.8897 2.10466 61.2737 2.77666 59.9137C3.44866 58.5537 4.36066 57.5057 5.51266 56.7697C6.68066 56.0177 8.00866 55.6417 9.49666 55.6417ZM25.5077 60.2737C25.9397 60.2737 26.3157 60.3617 26.6357 60.5377C26.9717 60.7137 27.2277 60.9457 27.4037 61.2337C27.5957 61.5057 27.6917 61.8177 27.6917 62.1697C27.6917 62.5697 27.5637 62.9217 27.3077 63.2257C27.0677 63.5297 26.7397 63.6817 26.3237 63.6817C25.9877 63.6817 25.6917 63.5777 25.4357 63.3697C25.1797 63.1457 25.0517 62.8337 25.0517 62.4337C25.0517 62.1297 25.1317 61.8737 25.2917 61.6657C25.4677 61.4417 25.6597 61.2657 25.8677 61.1377C25.7557 60.9777 25.5877 60.8977 25.3637 60.8977C24.8677 60.8977 24.4117 61.0497 23.9957 61.3537C23.5797 61.6417 23.2277 62.0177 22.9397 62.4817C22.6517 62.9457 22.4277 63.4417 22.2677 63.9697C22.1077 64.4817 22.0277 64.9617 22.0277 65.4097V70.4977C22.0277 71.2817 22.2517 71.8097 22.6997 72.0817C23.1637 72.3377 23.7877 72.4657 24.5717 72.4657V72.9697C24.2037 72.9537 23.6837 72.9377 23.0117 72.9217C22.3397 72.8897 21.6277 72.8737 20.8757 72.8737C20.3317 72.8737 19.7877 72.8897 19.2437 72.9217C18.7157 72.9377 18.3157 72.9537 18.0437 72.9697V72.4657C18.6997 72.4657 19.1637 72.3457 19.4357 72.1057C19.7237 71.8657 19.8677 71.4097 19.8677 70.7377V63.2257C19.8677 62.5057 19.7397 61.9777 19.4837 61.6417C19.2277 61.2897 18.7477 61.1137 18.0437 61.1137V60.6097C18.5557 60.6577 19.0517 60.6817 19.5317 60.6817C19.9957 60.6817 20.4357 60.6577 20.8517 60.6097C21.2837 60.5457 21.6757 60.4577 22.0277 60.3457V63.3457C22.2037 62.8817 22.4517 62.4177 22.7717 61.9537C23.1077 61.4737 23.5077 61.0737 23.9717 60.7537C24.4357 60.4337 24.9477 60.2737 25.5077 60.2737ZM34.0944 60.2737C35.5024 60.2737 36.5984 60.7057 37.3824 61.5697C38.1824 62.4177 38.5824 63.7457 38.5824 65.5537H30.1104L30.0864 65.0977H36.2784C36.3104 64.3137 36.2464 63.5937 36.0864 62.9377C35.9264 62.2657 35.6704 61.7297 35.3184 61.3297C34.9824 60.9297 34.5424 60.7297 33.9984 60.7297C33.2624 60.7297 32.6064 61.0977 32.0304 61.8337C31.4704 62.5697 31.1344 63.7377 31.0224 65.3377L31.0944 65.4337C31.0624 65.6737 31.0384 65.9377 31.0224 66.2257C31.0064 66.5137 30.9984 66.8017 30.9984 67.0897C30.9984 68.1777 31.1744 69.1137 31.5264 69.8977C31.8784 70.6817 32.3344 71.2817 32.8944 71.6977C33.4704 72.0977 34.0624 72.2977 34.6704 72.2977C35.1504 72.2977 35.6064 72.2257 36.0384 72.0817C36.4704 71.9217 36.8704 71.6657 37.2384 71.3137C37.6064 70.9617 37.9264 70.4897 38.1984 69.8977L38.6784 70.0897C38.5024 70.6177 38.2144 71.1297 37.8144 71.6257C37.4144 72.1217 36.9104 72.5297 36.3024 72.8497C35.6944 73.1537 34.9904 73.3057 34.1904 73.3057C33.0384 73.3057 32.0464 73.0417 31.2144 72.5137C30.3984 71.9857 29.7664 71.2577 29.3184 70.3297C28.8864 69.3857 28.6704 68.3057 28.6704 67.0897C28.6704 65.6817 28.8944 64.4737 29.3424 63.4657C29.7904 62.4417 30.4224 61.6577 31.2384 61.1137C32.0544 60.5537 33.0064 60.2737 34.0944 60.2737ZM46.235 60.2737C47.643 60.2737 48.739 60.7057 49.523 61.5697C50.323 62.4177 50.723 63.7457 50.723 65.5537H42.251L42.227 65.0977H48.419C48.451 64.3137 48.387 63.5937 48.227 62.9377C48.067 62.2657 47.811 61.7297 47.459 61.3297C47.123 60.9297 46.683 60.7297 46.139 60.7297C45.403 60.7297 44.747 61.0977 44.171 61.8337C43.611 62.5697 43.275 63.7377 43.163 65.3377L43.235 65.4337C43.203 65.6737 43.179 65.9377 43.163 66.2257C43.147 66.5137 43.139 66.8017 43.139 67.0897C43.139 68.1777 43.315 69.1137 43.667 69.8977C44.019 70.6817 44.475 71.2817 45.035 71.6977C45.611 72.0977 46.203 72.2977 46.811 72.2977C47.291 72.2977 47.747 72.2257 48.179 72.0817C48.611 71.9217 49.011 71.6657 49.379 71.3137C49.747 70.9617 50.067 70.4897 50.339 69.8977L50.819 70.0897C50.643 70.6177 50.355 71.1297 49.955 71.6257C49.555 72.1217 49.051 72.5297 48.443 72.8497C47.835 73.1537 47.131 73.3057 46.331 73.3057C45.179 73.3057 44.187 73.0417 43.355 72.5137C42.539 71.9857 41.907 71.2577 41.459 70.3297C41.027 69.3857 40.811 68.3057 40.811 67.0897C40.811 65.6817 41.035 64.4737 41.483 63.4657C41.931 62.4417 42.563 61.6577 43.379 61.1137C44.195 60.5537 45.147 60.2737 46.235 60.2737ZM60.6077 60.2737C61.2157 60.2737 61.7197 60.3537 62.1197 60.5137C62.5357 60.6737 62.8797 60.8977 63.1517 61.1857C63.4557 61.5057 63.6717 61.9057 63.7997 62.3857C63.9277 62.8657 63.9917 63.5137 63.9917 64.3297V70.7377C63.9917 71.4097 64.1277 71.8657 64.3997 72.1057C64.6877 72.3457 65.1597 72.4657 65.8157 72.4657V72.9697C65.5437 72.9537 65.1277 72.9377 64.5677 72.9217C64.0077 72.8897 63.4637 72.8737 62.9357 72.8737C62.4077 72.8737 61.8877 72.8897 61.3757 72.9217C60.8797 72.9377 60.5037 72.9537 60.2477 72.9697V72.4657C60.8237 72.4657 61.2317 72.3457 61.4717 72.1057C61.7117 71.8657 61.8317 71.4097 61.8317 70.7377V63.8017C61.8317 63.3057 61.7917 62.8497 61.7117 62.4337C61.6317 62.0177 61.4477 61.6817 61.1597 61.4257C60.8877 61.1697 60.4637 61.0417 59.8877 61.0417C59.2157 61.0417 58.6237 61.2337 58.1117 61.6177C57.6157 62.0017 57.2237 62.5297 56.9357 63.2017C56.6637 63.8577 56.5277 64.5937 56.5277 65.4097V70.7377C56.5277 71.4097 56.6477 71.8657 56.8877 72.1057C57.1277 72.3457 57.5357 72.4657 58.1117 72.4657V72.9697C57.8557 72.9537 57.4717 72.9377 56.9597 72.9217C56.4637 72.8897 55.9517 72.8737 55.4237 72.8737C54.8957 72.8737 54.3517 72.8897 53.7917 72.9217C53.2317 72.9377 52.8157 72.9537 52.5437 72.9697V72.4657C53.1997 72.4657 53.6637 72.3457 53.9357 72.1057C54.2237 71.8657 54.3677 71.4097 54.3677 70.7377V63.2257C54.3677 62.5057 54.2397 61.9777 53.9837 61.6417C53.7277 61.2897 53.2477 61.1137 52.5437 61.1137V60.6097C53.0557 60.6577 53.5517 60.6817 54.0317 60.6817C54.4957 60.6817 54.9357 60.6577 55.3517 60.6097C55.7837 60.5457 56.1757 60.4577 56.5277 60.3457V63.1777C56.9437 62.0897 57.5197 61.3377 58.2557 60.9217C59.0077 60.4897 59.7917 60.2737 60.6077 60.2737ZM74.861 55.6417C75.917 55.6417 76.781 55.8017 77.453 56.1217C78.141 56.4257 78.749 56.7857 79.277 57.2017C79.597 57.4417 79.837 57.4737 79.997 57.2977C80.173 57.1057 80.293 56.6657 80.357 55.9777H80.909C80.877 56.5697 80.853 57.2897 80.837 58.1377C80.821 58.9857 80.813 60.1057 80.813 61.4977H80.261C80.149 60.8097 80.045 60.2657 79.949 59.8657C79.853 59.4497 79.733 59.0977 79.589 58.8097C79.461 58.5217 79.285 58.2337 79.061 57.9457C78.565 57.2897 77.941 56.8177 77.189 56.5297C76.437 56.2257 75.645 56.0737 74.813 56.0737C74.029 56.0737 73.317 56.2737 72.677 56.6737C72.053 57.0577 71.509 57.6177 71.045 58.3537C70.597 59.0897 70.245 59.9777 69.989 61.0177C69.749 62.0577 69.629 63.2257 69.629 64.5217C69.629 65.8657 69.765 67.0577 70.037 68.0977C70.309 69.1217 70.685 69.9857 71.165 70.6897C71.661 71.3937 72.237 71.9297 72.893 72.2977C73.565 72.6497 74.285 72.8257 75.053 72.8257C75.773 72.8257 76.525 72.6817 77.309 72.3937C78.093 72.1057 78.709 71.6417 79.157 71.0017C79.509 70.5377 79.749 70.0337 79.877 69.4897C80.021 68.9457 80.149 68.1857 80.261 67.2097H80.813C80.813 68.6657 80.821 69.8417 80.837 70.7377C80.853 71.6177 80.877 72.3617 80.909 72.9697H80.357C80.293 72.2817 80.181 71.8497 80.021 71.6737C79.877 71.4977 79.629 71.5217 79.277 71.7457C78.685 72.1617 78.053 72.5297 77.381 72.8497C76.725 73.1537 75.877 73.3057 74.837 73.3057C73.317 73.3057 71.981 72.9617 70.829 72.2737C69.693 71.5857 68.805 70.5937 68.165 69.2977C67.541 68.0017 67.229 66.4417 67.229 64.6177C67.229 62.8257 67.557 61.2577 68.213 59.9137C68.869 58.5697 69.765 57.5217 70.901 56.7697C72.053 56.0177 73.373 55.6417 74.861 55.6417ZM86.9925 54.1537V70.7377C86.9925 71.4097 87.1285 71.8657 87.4005 72.1057C87.6885 72.3457 88.1605 72.4657 88.8165 72.4657V72.9697C88.5445 72.9537 88.1285 72.9377 87.5685 72.9217C87.0245 72.8897 86.4725 72.8737 85.9125 72.8737C85.3685 72.8737 84.8165 72.8897 84.2565 72.9217C83.6965 72.9377 83.2805 72.9537 83.0085 72.9697V72.4657C83.6645 72.4657 84.1285 72.3457 84.4005 72.1057C84.6885 71.8657 84.8325 71.4097 84.8325 70.7377V57.0337C84.8325 56.3137 84.7045 55.7857 84.4485 55.4497C84.1925 55.0977 83.7125 54.9217 83.0085 54.9217V54.4177C83.5205 54.4657 84.0165 54.4897 84.4965 54.4897C84.9605 54.4897 85.4005 54.4657 85.8165 54.4177C86.2485 54.3537 86.6405 54.2657 86.9925 54.1537ZM95.6413 60.2737C97.0493 60.2737 98.1453 60.7057 98.9293 61.5697C99.7293 62.4177 100.129 63.7457 100.129 65.5537H91.6573L91.6333 65.0977H97.8253C97.8573 64.3137 97.7933 63.5937 97.6333 62.9377C97.4733 62.2657 97.2173 61.7297 96.8653 61.3297C96.5293 60.9297 96.0893 60.7297 95.5453 60.7297C94.8093 60.7297 94.1533 61.0977 93.5773 61.8337C93.0173 62.5697 92.6813 63.7377 92.5693 65.3377L92.6413 65.4337C92.6093 65.6737 92.5853 65.9377 92.5693 66.2257C92.5533 66.5137 92.5453 66.8017 92.5453 67.0897C92.5453 68.1777 92.7213 69.1137 93.0733 69.8977C93.4253 70.6817 93.8813 71.2817 94.4413 71.6977C95.0173 72.0977 95.6093 72.2977 96.2173 72.2977C96.6973 72.2977 97.1533 72.2257 97.5853 72.0817C98.0173 71.9217 98.4173 71.6657 98.7853 71.3137C99.1533 70.9617 99.4733 70.4897 99.7453 69.8977L100.225 70.0897C100.049 70.6177 99.7613 71.1297 99.3613 71.6257C98.9613 72.1217 98.4573 72.5297 97.8493 72.8497C97.2413 73.1537 96.5373 73.3057 95.7373 73.3057C94.5853 73.3057 93.5933 73.0417 92.7613 72.5137C91.9453 71.9857 91.3133 71.2577 90.8653 70.3297C90.4333 69.3857 90.2173 68.3057 90.2173 67.0897C90.2173 65.6817 90.4413 64.4737 90.8893 63.4657C91.3373 62.4417 91.9693 61.6577 92.7853 61.1137C93.6013 60.5537 94.5533 60.2737 95.6413 60.2737ZM105.358 73.1377C104.702 73.1377 104.134 73.0177 103.654 72.7777C103.174 72.5217 102.806 72.1697 102.55 71.7217C102.31 71.2737 102.19 70.7537 102.19 70.1617C102.19 69.4577 102.35 68.8817 102.67 68.4337C103.006 67.9857 103.43 67.6257 103.942 67.3537C104.454 67.0817 104.99 66.8577 105.55 66.6817C106.126 66.4897 106.67 66.3137 107.182 66.1537C107.694 65.9777 108.11 65.7777 108.43 65.5537C108.766 65.3297 108.934 65.0337 108.934 64.6657V63.1777C108.934 62.5057 108.83 61.9937 108.622 61.6417C108.43 61.2897 108.166 61.0577 107.83 60.9457C107.494 60.8177 107.118 60.7537 106.702 60.7537C106.302 60.7537 105.87 60.8097 105.406 60.9217C104.958 61.0337 104.598 61.2657 104.326 61.6177C104.63 61.6817 104.894 61.8417 105.118 62.0977C105.342 62.3537 105.454 62.6817 105.454 63.0817C105.454 63.4817 105.326 63.8017 105.07 64.0417C104.814 64.2657 104.486 64.3777 104.086 64.3777C103.622 64.3777 103.278 64.2337 103.054 63.9457C102.846 63.6417 102.742 63.3057 102.742 62.9377C102.742 62.5217 102.846 62.1857 103.054 61.9297C103.262 61.6737 103.526 61.4337 103.846 61.2097C104.214 60.9537 104.686 60.7377 105.262 60.5617C105.854 60.3697 106.518 60.2737 107.254 60.2737C107.91 60.2737 108.47 60.3537 108.934 60.5137C109.398 60.6577 109.782 60.8737 110.086 61.1617C110.502 61.5457 110.774 62.0177 110.902 62.5777C111.03 63.1217 111.094 63.7777 111.094 64.5457V71.2177C111.094 71.6177 111.15 71.9057 111.262 72.0817C111.39 72.2577 111.582 72.3457 111.838 72.3457C112.014 72.3457 112.182 72.3057 112.342 72.2257C112.502 72.1457 112.694 72.0177 112.918 71.8417L113.182 72.2497C112.846 72.5057 112.526 72.7217 112.222 72.8977C111.918 73.0577 111.51 73.1377 110.998 73.1377C110.534 73.1377 110.15 73.0577 109.846 72.8977C109.542 72.7377 109.31 72.5057 109.15 72.2017C109.006 71.8817 108.934 71.4817 108.934 71.0017C108.502 71.7217 107.982 72.2577 107.374 72.6097C106.782 72.9617 106.11 73.1377 105.358 73.1377ZM106.222 72.1777C106.75 72.1777 107.238 72.0257 107.686 71.7217C108.15 71.4177 108.566 70.9617 108.934 70.3537V65.6497C108.742 65.9217 108.462 66.1537 108.094 66.3457C107.726 66.5217 107.326 66.7057 106.894 66.8977C106.462 67.0737 106.046 67.2897 105.646 67.5457C105.262 67.7857 104.942 68.1057 104.686 68.5057C104.43 68.9057 104.302 69.4257 104.302 70.0657C104.302 70.7057 104.47 71.2177 104.806 71.6017C105.158 71.9857 105.63 72.1777 106.222 72.1777ZM121.967 60.2737C122.575 60.2737 123.079 60.3537 123.479 60.5137C123.895 60.6737 124.239 60.8977 124.511 61.1857C124.815 61.5057 125.031 61.9057 125.159 62.3857C125.287 62.8657 125.351 63.5137 125.351 64.3297V70.7377C125.351 71.4097 125.487 71.8657 125.759 72.1057C126.047 72.3457 126.519 72.4657 127.175 72.4657V72.9697C126.903 72.9537 126.487 72.9377 125.927 72.9217C125.367 72.8897 124.823 72.8737 124.295 72.8737C123.767 72.8737 123.247 72.8897 122.735 72.9217C122.239 72.9377 121.863 72.9537 121.607 72.9697V72.4657C122.183 72.4657 122.591 72.3457 122.831 72.1057C123.071 71.8657 123.191 71.4097 123.191 70.7377V63.8017C123.191 63.3057 123.151 62.8497 123.071 62.4337C122.991 62.0177 122.807 61.6817 122.519 61.4257C122.247 61.1697 121.823 61.0417 121.247 61.0417C120.575 61.0417 119.983 61.2337 119.471 61.6177C118.975 62.0017 118.583 62.5297 118.295 63.2017C118.023 63.8577 117.887 64.5937 117.887 65.4097V70.7377C117.887 71.4097 118.007 71.8657 118.247 72.1057C118.487 72.3457 118.895 72.4657 119.471 72.4657V72.9697C119.215 72.9537 118.831 72.9377 118.319 72.9217C117.823 72.8897 117.311 72.8737 116.783 72.8737C116.255 72.8737 115.711 72.8897 115.151 72.9217C114.591 72.9377 114.175 72.9537 113.903 72.9697V72.4657C114.559 72.4657 115.023 72.3457 115.295 72.1057C115.583 71.8657 115.727 71.4097 115.727 70.7377V63.2257C115.727 62.5057 115.599 61.9777 115.343 61.6417C115.087 61.2897 114.607 61.1137 113.903 61.1137V60.6097C114.415 60.6577 114.911 60.6817 115.391 60.6817C115.855 60.6817 116.295 60.6577 116.711 60.6097C117.143 60.5457 117.535 60.4577 117.887 60.3457V63.1777C118.303 62.0897 118.879 61.3377 119.615 60.9217C120.367 60.4897 121.151 60.2737 121.967 60.2737Z" fill="white"/>
</svg>
