<svg width="33" height="32" viewBox="0 0 33 32" fill="none" xmlns="http://www.w3.org/2000/svg">
<path d="M2.31794 20.6748C2.39254 21.7007 2.7039 22.6953 3.22759 23.5806C3.66496 24.32 4.24048 24.9663 4.92115 25.4852L4.98266 25.4237L5.33621 25.7772L5.06427 26.1968C5.03444 26.1775 5.00477 26.1579 4.97525 26.1382L1.37456 29.7387M2.31794 20.6748L2.81633 20.7149C2.81736 20.7021 2.81842 20.6893 2.8195 20.6765M2.31794 20.6748L2.81662 20.6386C2.81754 20.6512 2.8185 20.6639 2.8195 20.6765M2.31794 20.6748C2.4829 18.6241 3.30242 16.6806 4.6557 15.1308L2.91123 31.2684M2.8195 20.6765C2.89333 21.6119 3.18005 22.5182 3.65793 23.3261C4.14228 24.1448 4.80982 24.8402 5.60814 25.3576L6.12678 25.6938L5.68976 26.1308L1.73155 30.0889M2.8195 20.6765C2.98295 18.7467 3.75798 16.919 5.03232 15.4597L5.03372 15.4581C5.11104 15.3688 5.20666 15.2971 5.31411 15.248L5.1063 14.7933L5.31411 15.248C5.42156 15.199 5.53831 15.1735 5.65645 15.1735C5.77458 15.1735 5.89134 15.199 5.99879 15.248C6.10623 15.2971 6.20186 15.3688 6.27918 15.4581L6.27917 15.4581L6.28166 15.4609C6.90481 16.1699 7.64648 17.3415 8.09147 18.6229C8.53948 19.913 8.65755 21.2261 8.16657 22.2828L8.97356 22.8471L12.3614 19.4593L12.7985 19.0223L12.2798 18.6861C11.4815 18.1687 10.814 17.4733 10.3296 16.6546C9.85173 15.8467 9.56501 14.9404 9.49118 14.005C9.65463 12.0752 10.4297 10.2475 11.704 8.78821L11.7054 8.78659C11.7827 8.69728 11.8783 8.62565 11.9858 8.57655C12.0932 8.52745 12.21 8.50204 12.3281 8.50204C12.4463 8.50204 12.563 8.52745 12.6705 8.57655C12.7779 8.62565 12.8735 8.69728 12.9509 8.78659L12.9508 8.7866L12.9533 8.78943C13.5765 9.49837 14.3182 10.67 14.7631 11.9514C15.2112 13.2415 15.3292 14.5546 14.8382 15.6113L15.6452 16.1756L19.0331 12.7878L19.4701 12.3508L18.9515 12.0146C18.1532 11.4972 17.4856 10.8018 17.0013 9.98306C16.5234 9.1752 16.2367 8.26891 16.1629 7.33354C16.3263 5.40373 17.1013 3.57603 18.3757 2.11671L18.3771 2.11509C18.4544 2.02578 18.55 1.95415 18.6575 1.90505C18.7649 1.85595 18.8817 1.83054 18.9998 1.83054C19.1179 1.83054 19.2347 1.85595 19.3421 1.90505C19.4496 1.95415 19.5452 2.02578 19.6225 2.11511L19.625 2.11793C20.2482 2.82687 20.9898 3.99855 21.4348 5.27994C21.8828 6.57002 22.0009 7.88313 21.5099 8.93981L22.3162 9.50474L24.0308 7.79684L24.1965 7.6318L24.1761 7.39884C23.943 4.74651 24.6815 3.26458 25.9238 2.32467C27.2235 1.34128 29.1498 0.886288 31.4545 0.509869C31.5945 0.489092 31.7375 0.501221 31.8721 0.54531C32.0075 0.589671 32.1307 0.665152 32.2316 0.765693C32.3326 0.866236 32.4086 0.989043 32.4535 1.12426C32.4983 1.25914 32.511 1.40263 32.4905 1.54326C32.3467 2.50678 32.1085 3.72292 31.7254 4.87623C31.3389 6.03979 30.8218 7.08663 30.1496 7.75886C29.6926 8.21581 28.9677 8.50628 28.1098 8.66855C27.2623 8.82884 26.3491 8.8523 25.5826 8.8269L25.3659 8.81972L25.2125 8.97307L23.4966 10.689L24.0607 11.496C25.1182 11.005 26.4314 11.1231 27.7213 11.5711C29.0025 12.016 30.1739 12.7577 30.8829 13.3809L30.8857 13.3833C30.975 13.4606 31.0467 13.5563 31.0958 13.6637L31.5505 13.4559L31.0958 13.6637C31.1449 13.7711 31.1703 13.8879 31.1703 14.006C31.1703 14.1241 31.1449 14.2409 31.0958 14.3483L31.5505 14.5561L31.0958 14.3483C31.0467 14.4558 30.975 14.5514 30.8857 14.6287L30.8845 14.6298C29.4244 15.9024 27.5966 16.6756 25.6672 16.8376C24.7321 16.7643 23.8259 16.4783 23.018 16.0013C22.1992 15.5178 21.5036 14.8513 20.9856 14.0539L20.6493 13.5361L20.2128 13.9727L16.8249 17.3605L17.389 18.1675C18.4465 17.6765 19.7597 17.7946 21.0496 18.2426C22.3308 18.6875 23.5022 19.4292 24.2112 20.0524L24.2141 20.0548C24.3034 20.1321 24.375 20.2278 24.4241 20.3352C24.4732 20.4426 24.4986 20.5594 24.4986 20.6775C24.4986 20.7956 24.4732 20.9124 24.4241 21.0198C24.375 21.1273 24.3034 21.2229 24.2141 21.3002L24.2128 21.3013C22.7527 22.5739 20.9249 23.3471 18.9955 23.5091C18.0604 23.4358 17.1542 23.1498 16.3463 22.6728C15.5275 22.1893 14.8319 21.5228 14.3139 20.7254L13.9776 20.2076L13.5411 20.6442L10.1532 24.032L10.7173 24.839C11.7752 24.3478 13.0886 24.4646 14.3782 24.9117C15.6593 25.3558 16.8302 26.0972 17.5386 26.723L17.5386 26.723L17.5424 26.7263C17.6317 26.8036 17.7033 26.8993 17.7524 27.0067C17.8015 27.1141 17.8269 27.2309 17.8269 27.349C17.8269 27.4671 17.8015 27.5839 17.7524 27.6913C17.7033 27.7988 17.6317 27.8944 17.5424 27.9717L17.5411 27.9728C16.081 29.2453 14.2533 30.0186 12.3239 30.1806C11.3885 30.1067 10.4821 29.82 9.67416 29.3421C8.85535 28.8578 8.15995 28.1903 7.64254 27.392L7.30641 26.8734L6.86941 27.3104L2.91123 31.2684M1.73155 30.0889C1.73243 30.0879 1.73332 30.087 1.7342 30.0861L1.37456 29.7387M1.73155 30.0889C1.58125 30.2459 1.49814 30.4555 1.50003 30.673C1.50193 30.8917 1.58968 31.101 1.74437 31.2556L1.39082 31.6092M1.73155 30.0889L1.72811 30.0923L1.37456 29.7387M1.37456 29.7387C1.1315 29.9904 0.99701 30.3274 1.00005 30.6773C1.00309 31.0271 1.14342 31.3618 1.39082 31.6092M1.39082 31.6092L1.74437 31.2556C1.89906 31.4103 2.10832 31.4981 2.32709 31.5C2.54459 31.5019 2.75417 31.4187 2.91123 31.2684M1.39082 31.6092L2.91123 31.2684M8.92658 21.4798C9.29902 19.1768 7.8097 16.442 6.6572 15.1308L8.98962 14.0033C9.06422 15.0292 9.37558 16.0238 9.89927 16.9091C10.3366 17.6485 10.9122 18.2948 11.5928 18.8137L11.6543 18.7522L12.0079 19.1057L11.736 19.5253C11.7061 19.506 11.6764 19.4864 11.6469 19.4667L9.39111 21.7224C9.32475 22.0576 9.22106 22.3865 9.07345 22.7042L8.62001 22.4935L8.26646 22.1399L8.92658 21.4798Z" stroke="#748042"/>
<path d="M2.49689 8.11241C0.989086 6.60465 0.30724 3.57579 0.0150204 1.61704C-0.0170746 1.39876 0.0024395 1.17599 0.0720005 0.966619C0.141562 0.757242 0.25923 0.567084 0.415565 0.411401C0.571901 0.255718 0.762554 0.138844 0.972223 0.070157C1.18189 0.00146951 1.40474 -0.0171194 1.62289 0.0158818C6.21568 0.765758 9.81038 1.8839 9.32201 7.4426L11.0366 9.1505C9.89711 6.69806 11.6718 3.29826 12.9994 1.78783C13.1237 1.6443 13.2774 1.52918 13.45 1.45028C13.6227 1.37138 13.8103 1.33054 14.0002 1.33054C14.19 1.33054 14.3777 1.37138 14.5503 1.45028C14.723 1.52918 14.8767 1.6443 15.0009 1.78783C16.3542 3.33756 17.1737 5.28107 17.3387 7.33185C17.2641 8.35772 16.9527 9.35234 16.429 10.2376C15.9054 11.1229 15.1836 11.8748 14.3204 12.4342L17.7083 15.822C16.5688 13.3696 18.3435 9.96976 19.6711 8.45933C19.7954 8.3158 19.9491 8.20068 20.1217 8.12178C20.2944 8.04288 20.482 8.00204 20.6719 8.00204C20.8617 8.00204 21.0493 8.04288 21.222 8.12178C21.3947 8.20068 21.5484 8.3158 21.6726 8.45933C23.0259 10.0091 23.8454 11.9526 24.0104 14.0033C23.9358 15.0292 23.6244 16.0238 23.1007 16.9091C22.577 17.7944 21.8553 18.5463 20.9921 19.1057L24.38 22.4935C23.2405 20.0411 25.0151 16.6413 26.3428 15.1308C26.4671 14.9873 26.6207 14.8722 26.7934 14.7933C26.9661 14.7144 27.1537 14.6735 27.3436 14.6735C27.5334 14.6735 27.721 14.7144 27.8937 14.7933C28.0664 14.8722 28.22 14.9873 28.3443 15.1308C29.6976 16.6806 30.5171 18.6241 30.6821 20.6748C30.6075 21.7007 30.2961 22.6953 29.7724 23.5806C29.2487 24.4659 28.527 25.2178 27.6638 25.7772L31.6254 29.7387C31.8685 29.9904 32.003 30.3274 31.9999 30.6773C31.9969 31.0271 31.8566 31.3618 31.6092 31.6092C31.3618 31.8566 31.0271 31.9969 30.6773 32C30.3274 32.003 29.9903 31.8685 29.7387 31.6254L25.777 27.6639C25.2176 28.5271 24.4657 29.2488 23.5804 29.7725C22.6951 30.2961 21.7004 30.6075 20.6745 30.6821C18.6243 30.5186 16.6808 29.701 15.1304 28.3497C14.9868 28.2255 14.8717 28.0718 14.7928 27.8991C14.7139 27.7265 14.6731 27.5389 14.6731 27.349C14.6731 27.1592 14.7139 26.9716 14.7928 26.7989C14.8717 26.6262 14.9868 26.4725 15.1304 26.3483C16.6408 25.014 20.0394 23.246 22.4932 24.3855L19.1054 20.9977C18.5453 21.8599 17.7932 22.5806 16.9079 23.1033C16.0226 23.6261 15.0283 23.9366 14.0029 24.0106C11.9527 23.8471 10.0092 23.0295 8.4587 21.6782C8.31516 21.554 8.20004 21.4003 8.12113 21.2276C8.04223 21.055 8.00139 20.8674 8.00139 20.6775C8.00139 20.4877 8.04223 20.3001 8.12113 20.1274C8.20004 19.9547 8.31516 19.801 8.4587 19.6768C9.96916 18.3492 13.3677 16.5745 15.8216 17.714L12.4337 14.3262C11.8737 15.1884 11.1215 15.9091 10.2362 16.4318C9.35096 16.9546 8.35661 17.2651 7.33118 17.3391C5.28098 17.1756 3.33748 16.358 1.78702 15.0067C1.64348 14.8825 1.52836 14.7288 1.44946 14.5561C1.37055 14.3835 1.32971 14.1959 1.32971 14.006C1.32971 13.8162 1.37055 13.6286 1.44946 13.4559C1.52836 13.2832 1.64348 13.1295 1.78702 13.0053C3.29749 11.6777 6.69604 9.90304 9.14988 11.0425L7.43393 9.32663C5.86341 9.37866 3.61906 9.23456 2.49689 8.11241Z" fill="#C2DC6F"/>
</svg>
