<svg width="17" height="16" viewBox="0 0 17 16" fill="none" xmlns="http://www.w3.org/2000/svg">
<g clip-path="url(#clip0_49_584)">
<path d="M5.16656 16C5.07883 16.0005 4.99185 15.9837 4.91063 15.9505C4.8294 15.9174 4.75552 15.8685 4.69323 15.8067C4.63075 15.7447 4.58115 15.671 4.5473 15.5897C4.51346 15.5085 4.49603 15.4214 4.49603 15.3334C4.49603 15.2453 4.51346 15.1582 4.5473 15.077C4.58115 14.9957 4.63075 14.922 4.69323 14.86L10.1399 9.41336C10.5144 9.03836 10.7248 8.53003 10.7248 8.00003C10.7248 7.47003 10.5144 6.9617 10.1399 6.5867L4.69323 1.14004C4.5677 1.01451 4.49717 0.844242 4.49717 0.666708C4.49717 0.489174 4.5677 0.318911 4.69323 0.193375C4.81877 0.0678396 4.98903 -0.00268555 5.16656 -0.00268555C5.3441 -0.00268555 5.51436 0.0678396 5.6399 0.193375L11.0866 5.64004C11.397 5.94967 11.6433 6.31751 11.8113 6.72248C11.9794 7.12744 12.0659 7.56158 12.0659 8.00003C12.0659 8.43848 11.9794 8.87262 11.8113 9.27759C11.6433 9.68256 11.397 10.0504 11.0866 10.36L5.6399 15.8067C5.5776 15.8685 5.50373 15.9174 5.4225 15.9505C5.34128 15.9837 5.2543 16.0005 5.16656 16Z" fill="#21231F"/>
</g>
<defs>
<clipPath id="clip0_49_584">
<rect width="16" height="16" fill="white" transform="translate(0.5)"/>
</clipPath>
</defs>
</svg>
