<svg width="124" height="32" viewBox="0 0 124 32" fill="none" xmlns="http://www.w3.org/2000/svg">
<path d="M2.31794 20.6748C2.39254 21.7007 2.7039 22.6953 3.22759 23.5806C3.66496 24.32 4.24048 24.9663 4.92115 25.4852L4.98266 25.4237L5.33621 25.7772L5.06427 26.1968C5.03444 26.1775 5.00477 26.1579 4.97525 26.1382L1.37456 29.7387M2.31794 20.6748L2.81633 20.7149C2.81736 20.7021 2.81842 20.6893 2.8195 20.6765M2.31794 20.6748L2.81662 20.6386C2.81754 20.6512 2.8185 20.6639 2.8195 20.6765M2.31794 20.6748C2.4829 18.6241 3.30242 16.6806 4.6557 15.1308L2.91123 31.2684M2.8195 20.6765C2.89333 21.6119 3.18005 22.5182 3.65793 23.3261C4.14228 24.1448 4.80982 24.8402 5.60814 25.3576L6.12678 25.6938L5.68976 26.1308L1.73155 30.0889M2.8195 20.6765C2.98295 18.7467 3.75798 16.919 5.03232 15.4597L5.03372 15.4581C5.11104 15.3688 5.20666 15.2971 5.31411 15.248L5.1063 14.7933L5.31411 15.248C5.42156 15.199 5.53831 15.1735 5.65645 15.1735C5.77458 15.1735 5.89134 15.199 5.99879 15.248C6.10623 15.2971 6.20186 15.3688 6.27918 15.4581L6.27917 15.4581L6.28166 15.4609C6.90481 16.1699 7.64648 17.3415 8.09147 18.6229C8.53948 19.913 8.65755 21.2261 8.16657 22.2828L8.97356 22.8471L12.3614 19.4593L12.7985 19.0223L12.2798 18.6861C11.4815 18.1687 10.814 17.4733 10.3296 16.6546C9.85173 15.8467 9.56501 14.9404 9.49118 14.005C9.65463 12.0752 10.4297 10.2475 11.704 8.78821L11.7054 8.78659C11.7827 8.69728 11.8783 8.62565 11.9858 8.57655C12.0932 8.52745 12.21 8.50204 12.3281 8.50204C12.4463 8.50204 12.563 8.52745 12.6705 8.57655C12.7779 8.62565 12.8735 8.69728 12.9509 8.78659L12.9508 8.7866L12.9533 8.78943C13.5765 9.49837 14.3182 10.67 14.7631 11.9514C15.2112 13.2415 15.3292 14.5546 14.8382 15.6113L15.6452 16.1756L19.0331 12.7878L19.4701 12.3508L18.9515 12.0146C18.1532 11.4972 17.4856 10.8018 17.0013 9.98306C16.5234 9.1752 16.2367 8.26891 16.1629 7.33354C16.3263 5.40373 17.1013 3.57603 18.3757 2.11671L18.3771 2.11509C18.4544 2.02578 18.55 1.95415 18.6575 1.90505C18.7649 1.85595 18.8817 1.83054 18.9998 1.83054C19.1179 1.83054 19.2347 1.85595 19.3421 1.90505C19.4496 1.95415 19.5452 2.02578 19.6225 2.11511L19.625 2.11793C20.2482 2.82687 20.9898 3.99855 21.4348 5.27994C21.8828 6.57002 22.0009 7.88313 21.5099 8.93981L22.3162 9.50474L24.0308 7.79684L24.1965 7.6318L24.1761 7.39884C23.943 4.74651 24.6815 3.26458 25.9238 2.32467C27.2235 1.34128 29.1498 0.886288 31.4545 0.509869C31.5945 0.489092 31.7375 0.501221 31.8721 0.54531C32.0075 0.589671 32.1307 0.665152 32.2316 0.765693C32.3326 0.866236 32.4086 0.989043 32.4535 1.12426C32.4983 1.25914 32.511 1.40263 32.4905 1.54326C32.3467 2.50678 32.1085 3.72292 31.7254 4.87623C31.3389 6.03979 30.8218 7.08663 30.1496 7.75886C29.6926 8.21581 28.9677 8.50628 28.1098 8.66855C27.2623 8.82884 26.3491 8.8523 25.5826 8.8269L25.3659 8.81972L25.2125 8.97307L23.4966 10.689L24.0607 11.496C25.1182 11.005 26.4314 11.1231 27.7213 11.5711C29.0025 12.016 30.1739 12.7577 30.8829 13.3809L30.8857 13.3833C30.975 13.4606 31.0467 13.5563 31.0958 13.6637L31.5505 13.4559L31.0958 13.6637C31.1449 13.7711 31.1703 13.8879 31.1703 14.006C31.1703 14.1241 31.1449 14.2409 31.0958 14.3483L31.5505 14.5561L31.0958 14.3483C31.0467 14.4558 30.975 14.5514 30.8857 14.6287L30.8845 14.6298C29.4244 15.9024 27.5966 16.6756 25.6672 16.8376C24.7321 16.7643 23.8259 16.4783 23.018 16.0013C22.1992 15.5178 21.5036 14.8513 20.9856 14.0539L20.6493 13.5361L20.2128 13.9727L16.8249 17.3605L17.389 18.1675C18.4465 17.6765 19.7597 17.7946 21.0496 18.2426C22.3308 18.6875 23.5022 19.4292 24.2112 20.0524L24.2141 20.0548C24.3034 20.1321 24.375 20.2278 24.4241 20.3352C24.4732 20.4426 24.4986 20.5594 24.4986 20.6775C24.4986 20.7956 24.4732 20.9124 24.4241 21.0198C24.375 21.1273 24.3034 21.2229 24.2141 21.3002L24.2128 21.3013C22.7527 22.5739 20.9249 23.3471 18.9955 23.5091C18.0604 23.4358 17.1542 23.1498 16.3463 22.6728C15.5275 22.1893 14.8319 21.5228 14.3139 20.7254L13.9776 20.2076L13.5411 20.6442L10.1532 24.032L10.7173 24.839C11.7752 24.3478 13.0886 24.4646 14.3782 24.9117C15.6593 25.3558 16.8302 26.0972 17.5386 26.723L17.5386 26.723L17.5424 26.7263C17.6317 26.8036 17.7033 26.8993 17.7524 27.0067C17.8015 27.1141 17.8269 27.2309 17.8269 27.349C17.8269 27.4671 17.8015 27.5839 17.7524 27.6913C17.7033 27.7988 17.6317 27.8944 17.5424 27.9717L17.5411 27.9728C16.081 29.2453 14.2533 30.0186 12.3239 30.1806C11.3885 30.1067 10.4821 29.82 9.67416 29.3421C8.85535 28.8578 8.15995 28.1903 7.64254 27.392L7.30641 26.8734L6.86941 27.3104L2.91123 31.2684M1.73155 30.0889C1.73243 30.0879 1.73332 30.087 1.7342 30.0861L1.37456 29.7387M1.73155 30.0889C1.58125 30.2459 1.49814 30.4555 1.50003 30.673C1.50193 30.8917 1.58968 31.101 1.74437 31.2556L1.39082 31.6092M1.73155 30.0889L1.72811 30.0923L1.37456 29.7387M1.37456 29.7387C1.1315 29.9904 0.99701 30.3274 1.00005 30.6773C1.00309 31.0271 1.14342 31.3618 1.39082 31.6092M1.39082 31.6092L1.74437 31.2556C1.89906 31.4103 2.10832 31.4981 2.32709 31.5C2.54459 31.5019 2.75417 31.4187 2.91123 31.2684M1.39082 31.6092L2.91123 31.2684M8.92658 21.4798C9.29902 19.1768 7.8097 16.442 6.6572 15.1308L8.98962 14.0033C9.06422 15.0292 9.37558 16.0238 9.89927 16.9091C10.3366 17.6485 10.9122 18.2948 11.5928 18.8137L11.6543 18.7522L12.0079 19.1057L11.736 19.5253C11.7061 19.506 11.6764 19.4864 11.6469 19.4667L9.39111 21.7224C9.32475 22.0576 9.22106 22.3865 9.07345 22.7042L8.62001 22.4935L8.26646 22.1399L8.92658 21.4798Z" stroke="#748042"/>
<path d="M2.49689 8.11241C0.989086 6.60465 0.30724 3.57579 0.0150204 1.61704C-0.0170746 1.39876 0.0024395 1.17599 0.0720005 0.966619C0.141562 0.757242 0.25923 0.567084 0.415565 0.411401C0.571901 0.255718 0.762554 0.138844 0.972223 0.070157C1.18189 0.00146951 1.40474 -0.0171194 1.62289 0.0158818C6.21568 0.765758 9.81038 1.8839 9.32201 7.4426L11.0366 9.1505C9.89711 6.69806 11.6718 3.29826 12.9994 1.78783C13.1237 1.6443 13.2774 1.52918 13.45 1.45028C13.6227 1.37138 13.8103 1.33054 14.0002 1.33054C14.19 1.33054 14.3777 1.37138 14.5503 1.45028C14.723 1.52918 14.8767 1.6443 15.0009 1.78783C16.3542 3.33756 17.1737 5.28107 17.3387 7.33185C17.2641 8.35772 16.9527 9.35234 16.429 10.2376C15.9054 11.1229 15.1836 11.8748 14.3204 12.4342L17.7083 15.822C16.5688 13.3696 18.3435 9.96976 19.6711 8.45933C19.7954 8.3158 19.9491 8.20068 20.1217 8.12178C20.2944 8.04288 20.482 8.00204 20.6719 8.00204C20.8617 8.00204 21.0493 8.04288 21.222 8.12178C21.3947 8.20068 21.5484 8.3158 21.6726 8.45933C23.0259 10.0091 23.8454 11.9526 24.0104 14.0033C23.9358 15.0292 23.6244 16.0238 23.1007 16.9091C22.577 17.7944 21.8553 18.5463 20.9921 19.1057L24.38 22.4935C23.2405 20.0411 25.0151 16.6413 26.3428 15.1308C26.4671 14.9873 26.6207 14.8722 26.7934 14.7933C26.9661 14.7144 27.1537 14.6735 27.3436 14.6735C27.5334 14.6735 27.721 14.7144 27.8937 14.7933C28.0664 14.8722 28.22 14.9873 28.3443 15.1308C29.6976 16.6806 30.5171 18.6241 30.6821 20.6748C30.6075 21.7007 30.2961 22.6953 29.7724 23.5806C29.2487 24.4659 28.527 25.2178 27.6638 25.7772L31.6254 29.7387C31.8685 29.9904 32.003 30.3274 31.9999 30.6773C31.9969 31.0271 31.8566 31.3618 31.6092 31.6092C31.3618 31.8566 31.0271 31.9969 30.6773 32C30.3274 32.003 29.9903 31.8685 29.7387 31.6254L25.777 27.6639C25.2176 28.5271 24.4657 29.2488 23.5804 29.7725C22.6951 30.2961 21.7004 30.6075 20.6745 30.6821C18.6243 30.5186 16.6808 29.701 15.1304 28.3497C14.9868 28.2255 14.8717 28.0718 14.7928 27.8991C14.7139 27.7265 14.6731 27.5389 14.6731 27.349C14.6731 27.1592 14.7139 26.9716 14.7928 26.7989C14.8717 26.6262 14.9868 26.4725 15.1304 26.3483C16.6408 25.014 20.0394 23.246 22.4932 24.3855L19.1054 20.9977C18.5453 21.8599 17.7932 22.5806 16.9079 23.1033C16.0226 23.6261 15.0283 23.9366 14.0029 24.0106C11.9527 23.8471 10.0092 23.0295 8.4587 21.6782C8.31516 21.554 8.20004 21.4003 8.12113 21.2276C8.04223 21.055 8.00139 20.8674 8.00139 20.6775C8.00139 20.4877 8.04223 20.3001 8.12113 20.1274C8.20004 19.9547 8.31516 19.801 8.4587 19.6768C9.96916 18.3492 13.3677 16.5745 15.8216 17.714L12.4337 14.3262C11.8737 15.1884 11.1215 15.9091 10.2362 16.4318C9.35096 16.9546 8.35661 17.2651 7.33118 17.3391C5.28098 17.1756 3.33748 16.358 1.78702 15.0067C1.64348 14.8825 1.52836 14.7288 1.44946 14.5561C1.37055 14.3835 1.32971 14.1959 1.32971 14.006C1.32971 13.8162 1.37055 13.6286 1.44946 13.4559C1.52836 13.2832 1.64348 13.1295 1.78702 13.0053C3.29749 11.6777 6.69604 9.90304 9.14988 11.0425L7.43393 9.32663C5.86341 9.37866 3.61906 9.23456 2.49689 8.11241Z" fill="#C2DC6F"/>
<path d="M45.1644 10.948C45.8578 10.948 46.4178 11.0547 46.8444 11.268C47.2711 11.4707 47.6711 11.7107 48.0444 11.988C48.1831 12.0947 48.2898 12.148 48.3644 12.148C48.5671 12.148 48.7004 11.8227 48.7644 11.172H49.1324C49.1111 11.5667 49.0951 12.0467 49.0844 12.612C49.0738 13.1773 49.0684 13.924 49.0684 14.852H48.7004C48.6258 14.404 48.5351 13.972 48.4284 13.556C48.3218 13.14 48.1458 12.7827 47.9004 12.484C47.5911 12.0893 47.1858 11.7853 46.6844 11.572C46.1831 11.348 45.6658 11.236 45.1324 11.236C44.5991 11.236 44.1138 11.3693 43.6764 11.636C43.2498 11.892 42.8818 12.2653 42.5724 12.756C42.2631 13.2467 42.0231 13.8387 41.8524 14.532C41.6924 15.2147 41.6124 15.988 41.6124 16.852C41.6124 18.772 41.9218 20.18 42.5404 21.076C43.1591 21.9613 44.1191 22.404 45.4204 22.404C45.8044 22.404 46.1351 22.3507 46.4124 22.244C46.7004 22.1267 46.9244 22.0147 47.0844 21.908C47.2871 21.7693 47.4151 21.6413 47.4684 21.524C47.5218 21.396 47.5484 21.2307 47.5484 21.028V19.492C47.5484 19.0547 47.5058 18.7293 47.4204 18.516C47.3351 18.3027 47.1751 18.1587 46.9404 18.084C46.7164 18.0093 46.3804 17.9667 45.9324 17.956V17.636C46.1244 17.6467 46.3484 17.6573 46.6044 17.668C46.8604 17.668 47.1271 17.6733 47.4044 17.684C47.6924 17.684 47.9538 17.684 48.1884 17.684C48.5404 17.684 48.8551 17.6787 49.1324 17.668C49.4204 17.6573 49.6604 17.6467 49.8524 17.636V17.956C49.6178 17.9667 49.4418 18.004 49.3244 18.068C49.2071 18.132 49.1271 18.26 49.0844 18.452C49.0524 18.644 49.0364 18.9373 49.0364 19.332V22.5H48.7164C48.7058 22.3187 48.6631 22.1213 48.5884 21.908C48.5244 21.6947 48.4231 21.588 48.2844 21.588C48.2204 21.588 48.1564 21.604 48.0924 21.636C48.0284 21.668 47.9164 21.7427 47.7564 21.86C47.4044 22.1267 47.0311 22.34 46.6364 22.5C46.2418 22.6493 45.7831 22.724 45.2604 22.724C44.1618 22.724 43.2178 22.5 42.4284 22.052C41.6498 21.5933 41.0524 20.9373 40.6364 20.084C40.2204 19.2307 40.0124 18.212 40.0124 17.028C40.0124 15.78 40.2364 14.7027 40.6844 13.796C41.1324 12.8893 41.7404 12.1907 42.5084 11.7C43.2871 11.1987 44.1724 10.948 45.1644 10.948ZM55.8384 14.036C56.1264 14.036 56.3771 14.0947 56.5904 14.212C56.8144 14.3293 56.9851 14.484 57.1024 14.676C57.2304 14.8573 57.2944 15.0653 57.2944 15.3C57.2944 15.5667 57.2091 15.8013 57.0384 16.004C56.8784 16.2067 56.6598 16.308 56.3824 16.308C56.1584 16.308 55.9611 16.2387 55.7904 16.1C55.6198 15.9507 55.5344 15.7427 55.5344 15.476C55.5344 15.2733 55.5878 15.1027 55.6944 14.964C55.8118 14.8147 55.9398 14.6973 56.0784 14.612C56.0038 14.5053 55.8918 14.452 55.7424 14.452C55.4118 14.452 55.1078 14.5533 54.8304 14.756C54.5531 14.948 54.3184 15.1987 54.1264 15.508C53.9344 15.8173 53.7851 16.148 53.6784 16.5C53.5718 16.8413 53.5184 17.1613 53.5184 17.46V20.852C53.5184 21.3747 53.6678 21.7267 53.9664 21.908C54.2758 22.0787 54.6918 22.164 55.2144 22.164V22.5C54.9691 22.4893 54.6224 22.4787 54.1744 22.468C53.7264 22.4467 53.2518 22.436 52.7504 22.436C52.3878 22.436 52.0251 22.4467 51.6624 22.468C51.3104 22.4787 51.0438 22.4893 50.8624 22.5V22.164C51.2998 22.164 51.6091 22.084 51.7904 21.924C51.9824 21.764 52.0784 21.46 52.0784 21.012V16.004C52.0784 15.524 51.9931 15.172 51.8224 14.948C51.6518 14.7133 51.3318 14.596 50.8624 14.596V14.26C51.2038 14.292 51.5344 14.308 51.8544 14.308C52.1638 14.308 52.4571 14.292 52.7344 14.26C53.0224 14.2173 53.2838 14.1587 53.5184 14.084V16.084C53.6358 15.7747 53.8011 15.4653 54.0144 15.156C54.2384 14.836 54.5051 14.5693 54.8144 14.356C55.1238 14.1427 55.4651 14.036 55.8384 14.036ZM61.5629 14.036C62.5016 14.036 63.2323 14.324 63.7549 14.9C64.2883 15.4653 64.5549 16.3507 64.5549 17.556H58.9069L58.8909 17.252H63.0189C63.0403 16.7293 62.9976 16.2493 62.8909 15.812C62.7843 15.364 62.6136 15.0067 62.3789 14.74C62.1549 14.4733 61.8616 14.34 61.4989 14.34C61.0083 14.34 60.5709 14.5853 60.1869 15.076C59.8136 15.5667 59.5896 16.3453 59.5149 17.412L59.5629 17.476C59.5416 17.636 59.5256 17.812 59.5149 18.004C59.5043 18.196 59.4989 18.388 59.4989 18.58C59.4989 19.3053 59.6163 19.9293 59.8509 20.452C60.0856 20.9747 60.3896 21.3747 60.7629 21.652C61.1469 21.9187 61.5416 22.052 61.9469 22.052C62.2669 22.052 62.5709 22.004 62.8589 21.908C63.1469 21.8013 63.4136 21.6307 63.6589 21.396C63.9043 21.1613 64.1176 20.8467 64.2989 20.452L64.6189 20.58C64.5016 20.932 64.3096 21.2733 64.0429 21.604C63.7763 21.9347 63.4403 22.2067 63.0349 22.42C62.6296 22.6227 62.1603 22.724 61.6269 22.724C60.8589 22.724 60.1976 22.548 59.6429 22.196C59.0989 21.844 58.6776 21.3587 58.3789 20.74C58.0909 20.1107 57.9469 19.3907 57.9469 18.58C57.9469 17.6413 58.0963 16.836 58.3949 16.164C58.6936 15.4813 59.1149 14.9587 59.6589 14.596C60.2029 14.2227 60.8376 14.036 61.5629 14.036ZM69.6567 14.036C70.5954 14.036 71.326 14.324 71.8487 14.9C72.382 15.4653 72.6487 16.3507 72.6487 17.556H67.0007L66.9847 17.252H71.1127C71.134 16.7293 71.0914 16.2493 70.9847 15.812C70.878 15.364 70.7074 15.0067 70.4727 14.74C70.2487 14.4733 69.9554 14.34 69.5927 14.34C69.102 14.34 68.6647 14.5853 68.2807 15.076C67.9074 15.5667 67.6834 16.3453 67.6087 17.412L67.6567 17.476C67.6354 17.636 67.6194 17.812 67.6087 18.004C67.598 18.196 67.5927 18.388 67.5927 18.58C67.5927 19.3053 67.71 19.9293 67.9447 20.452C68.1794 20.9747 68.4834 21.3747 68.8567 21.652C69.2407 21.9187 69.6354 22.052 70.0407 22.052C70.3607 22.052 70.6647 22.004 70.9527 21.908C71.2407 21.8013 71.5074 21.6307 71.7527 21.396C71.998 21.1613 72.2114 20.8467 72.3927 20.452L72.7127 20.58C72.5954 20.932 72.4034 21.2733 72.1367 21.604C71.87 21.9347 71.534 22.2067 71.1287 22.42C70.7234 22.6227 70.254 22.724 69.7207 22.724C68.9527 22.724 68.2914 22.548 67.7367 22.196C67.1927 21.844 66.7714 21.3587 66.4727 20.74C66.1847 20.1107 66.0407 19.3907 66.0407 18.58C66.0407 17.6413 66.19 16.836 66.4887 16.164C66.7874 15.4813 67.2087 14.9587 67.7527 14.596C68.2967 14.2227 68.9314 14.036 69.6567 14.036ZM79.2384 14.036C79.6438 14.036 79.9798 14.0893 80.2464 14.196C80.5238 14.3027 80.7531 14.452 80.9344 14.644C81.1371 14.8573 81.2811 15.124 81.3664 15.444C81.4518 15.764 81.4944 16.196 81.4944 16.74V21.012C81.4944 21.46 81.5851 21.764 81.7664 21.924C81.9584 22.084 82.2731 22.164 82.7104 22.164V22.5C82.5291 22.4893 82.2518 22.4787 81.8784 22.468C81.5051 22.4467 81.1424 22.436 80.7904 22.436C80.4384 22.436 80.0918 22.4467 79.7504 22.468C79.4198 22.4787 79.1691 22.4893 78.9984 22.5V22.164C79.3824 22.164 79.6544 22.084 79.8144 21.924C79.9744 21.764 80.0544 21.46 80.0544 21.012V16.388C80.0544 16.0573 80.0278 15.7533 79.9744 15.476C79.9211 15.1987 79.7984 14.9747 79.6064 14.804C79.4251 14.6333 79.1424 14.548 78.7584 14.548C78.3104 14.548 77.9158 14.676 77.5744 14.932C77.2438 15.188 76.9824 15.54 76.7904 15.988C76.6091 16.4253 76.5184 16.916 76.5184 17.46V21.012C76.5184 21.46 76.5984 21.764 76.7584 21.924C76.9184 22.084 77.1904 22.164 77.5744 22.164V22.5C77.4038 22.4893 77.1478 22.4787 76.8064 22.468C76.4758 22.4467 76.1344 22.436 75.7824 22.436C75.4304 22.436 75.0678 22.4467 74.6944 22.468C74.3211 22.4787 74.0438 22.4893 73.8624 22.5V22.164C74.2998 22.164 74.6091 22.084 74.7904 21.924C74.9824 21.764 75.0784 21.46 75.0784 21.012V16.004C75.0784 15.524 74.9931 15.172 74.8224 14.948C74.6518 14.7133 74.3318 14.596 73.8624 14.596V14.26C74.2038 14.292 74.5344 14.308 74.8544 14.308C75.1638 14.308 75.4571 14.292 75.7344 14.26C76.0224 14.2173 76.2838 14.1587 76.5184 14.084V15.972C76.7958 15.2467 77.1798 14.7453 77.6704 14.468C78.1718 14.18 78.6944 14.036 79.2384 14.036ZM88.7407 10.948C89.4447 10.948 90.0207 11.0547 90.4687 11.268C90.9274 11.4707 91.3327 11.7107 91.6847 11.988C91.898 12.148 92.058 12.1693 92.1647 12.052C92.282 11.924 92.362 11.6307 92.4047 11.172H92.7727C92.7514 11.5667 92.7354 12.0467 92.7247 12.612C92.714 13.1773 92.7087 13.924 92.7087 14.852H92.3407C92.266 14.3933 92.1967 14.0307 92.1327 13.764C92.0687 13.4867 91.9887 13.252 91.8927 13.06C91.8074 12.868 91.69 12.676 91.5407 12.484C91.21 12.0467 90.794 11.732 90.2927 11.54C89.7914 11.3373 89.2634 11.236 88.7087 11.236C88.186 11.236 87.7114 11.3693 87.2847 11.636C86.8687 11.892 86.506 12.2653 86.1967 12.756C85.898 13.2467 85.6634 13.8387 85.4927 14.532C85.3327 15.2253 85.2527 16.004 85.2527 16.868C85.2527 17.764 85.3434 18.5587 85.5247 19.252C85.706 19.9347 85.9567 20.5107 86.2767 20.98C86.6074 21.4493 86.9914 21.8067 87.4287 22.052C87.8767 22.2867 88.3567 22.404 88.8687 22.404C89.3487 22.404 89.85 22.308 90.3727 22.116C90.8954 21.924 91.306 21.6147 91.6047 21.188C91.8394 20.8787 91.9994 20.5427 92.0847 20.18C92.1807 19.8173 92.266 19.3107 92.3407 18.66H92.7087C92.7087 19.6307 92.714 20.4147 92.7247 21.012C92.7354 21.5987 92.7514 22.0947 92.7727 22.5H92.4047C92.362 22.0413 92.2874 21.7533 92.1807 21.636C92.0847 21.5187 91.9194 21.5347 91.6847 21.684C91.29 21.9613 90.8687 22.2067 90.4207 22.42C89.9834 22.6227 89.418 22.724 88.7247 22.724C87.7114 22.724 86.8207 22.4947 86.0527 22.036C85.2954 21.5773 84.7034 20.916 84.2767 20.052C83.8607 19.188 83.6527 18.148 83.6527 16.932C83.6527 15.7373 83.8714 14.692 84.3087 13.796C84.746 12.9 85.3434 12.2013 86.1007 11.7C86.8687 11.1987 87.7487 10.948 88.7407 10.948ZM96.8283 9.956V21.012C96.8283 21.46 96.919 21.764 97.1003 21.924C97.2923 22.084 97.607 22.164 98.0443 22.164V22.5C97.863 22.4893 97.5856 22.4787 97.2123 22.468C96.8496 22.4467 96.4816 22.436 96.1083 22.436C95.7456 22.436 95.3776 22.4467 95.0043 22.468C94.631 22.4787 94.3536 22.4893 94.1723 22.5V22.164C94.6096 22.164 94.919 22.084 95.1003 21.924C95.2923 21.764 95.3883 21.46 95.3883 21.012V11.876C95.3883 11.396 95.303 11.044 95.1323 10.82C94.9616 10.5853 94.6416 10.468 94.1723 10.468V10.132C94.5136 10.164 94.8443 10.18 95.1643 10.18C95.4736 10.18 95.767 10.164 96.0443 10.132C96.3323 10.0893 96.5936 10.0307 96.8283 9.956ZM102.594 14.036C103.533 14.036 104.264 14.324 104.786 14.9C105.32 15.4653 105.586 16.3507 105.586 17.556H99.9382L99.9222 17.252H104.05C104.072 16.7293 104.029 16.2493 103.922 15.812C103.816 15.364 103.645 15.0067 103.41 14.74C103.186 14.4733 102.893 14.34 102.53 14.34C102.04 14.34 101.602 14.5853 101.218 15.076C100.845 15.5667 100.621 16.3453 100.546 17.412L100.594 17.476C100.573 17.636 100.557 17.812 100.546 18.004C100.536 18.196 100.53 18.388 100.53 18.58C100.53 19.3053 100.648 19.9293 100.882 20.452C101.117 20.9747 101.421 21.3747 101.794 21.652C102.178 21.9187 102.573 22.052 102.978 22.052C103.298 22.052 103.602 22.004 103.89 21.908C104.178 21.8013 104.445 21.6307 104.69 21.396C104.936 21.1613 105.149 20.8467 105.33 20.452L105.65 20.58C105.533 20.932 105.341 21.2733 105.074 21.604C104.808 21.9347 104.472 22.2067 104.066 22.42C103.661 22.6227 103.192 22.724 102.658 22.724C101.89 22.724 101.229 22.548 100.674 22.196C100.13 21.844 99.7089 21.3587 99.4102 20.74C99.1222 20.1107 98.9782 19.3907 98.9782 18.58C98.9782 17.6413 99.1275 16.836 99.4262 16.164C99.7249 15.4813 100.146 14.9587 100.69 14.596C101.234 14.2227 101.869 14.036 102.594 14.036ZM109.072 22.612C108.635 22.612 108.256 22.532 107.936 22.372C107.616 22.2013 107.371 21.9667 107.2 21.668C107.04 21.3693 106.96 21.0227 106.96 20.628C106.96 20.1587 107.067 19.7747 107.28 19.476C107.504 19.1773 107.787 18.9373 108.128 18.756C108.469 18.5747 108.827 18.4253 109.2 18.308C109.584 18.18 109.947 18.0627 110.288 17.956C110.629 17.8387 110.907 17.7053 111.12 17.556C111.344 17.4067 111.456 17.2093 111.456 16.964V15.972C111.456 15.524 111.387 15.1827 111.248 14.948C111.12 14.7133 110.944 14.5587 110.72 14.484C110.496 14.3987 110.245 14.356 109.968 14.356C109.701 14.356 109.413 14.3933 109.104 14.468C108.805 14.5427 108.565 14.6973 108.384 14.932C108.587 14.9747 108.763 15.0813 108.912 15.252C109.061 15.4227 109.136 15.6413 109.136 15.908C109.136 16.1747 109.051 16.388 108.88 16.548C108.709 16.6973 108.491 16.772 108.224 16.772C107.915 16.772 107.685 16.676 107.536 16.484C107.397 16.2813 107.328 16.0573 107.328 15.812C107.328 15.5347 107.397 15.3107 107.536 15.14C107.675 14.9693 107.851 14.8093 108.064 14.66C108.309 14.4893 108.624 14.3453 109.008 14.228C109.403 14.1 109.845 14.036 110.336 14.036C110.773 14.036 111.147 14.0893 111.456 14.196C111.765 14.292 112.021 14.436 112.224 14.628C112.501 14.884 112.683 15.1987 112.768 15.572C112.853 15.9347 112.896 16.372 112.896 16.884V21.332C112.896 21.5987 112.933 21.7907 113.008 21.908C113.093 22.0253 113.221 22.084 113.392 22.084C113.509 22.084 113.621 22.0573 113.728 22.004C113.835 21.9507 113.963 21.8653 114.112 21.748L114.288 22.02C114.064 22.1907 113.851 22.3347 113.648 22.452C113.445 22.5587 113.173 22.612 112.832 22.612C112.523 22.612 112.267 22.5587 112.064 22.452C111.861 22.3453 111.707 22.1907 111.6 21.988C111.504 21.7747 111.456 21.508 111.456 21.188C111.168 21.668 110.821 22.0253 110.416 22.26C110.021 22.4947 109.573 22.612 109.072 22.612ZM109.648 21.972C110 21.972 110.325 21.8707 110.624 21.668C110.933 21.4653 111.211 21.1613 111.456 20.756V17.62C111.328 17.8013 111.141 17.956 110.896 18.084C110.651 18.2013 110.384 18.324 110.096 18.452C109.808 18.5693 109.531 18.7133 109.264 18.884C109.008 19.044 108.795 19.2573 108.624 19.524C108.453 19.7907 108.368 20.1373 108.368 20.564C108.368 20.9907 108.48 21.332 108.704 21.588C108.939 21.844 109.253 21.972 109.648 21.972ZM120.145 14.036C120.55 14.036 120.886 14.0893 121.153 14.196C121.43 14.3027 121.659 14.452 121.841 14.644C122.043 14.8573 122.187 15.124 122.273 15.444C122.358 15.764 122.401 16.196 122.401 16.74V21.012C122.401 21.46 122.491 21.764 122.673 21.924C122.865 22.084 123.179 22.164 123.617 22.164V22.5C123.435 22.4893 123.158 22.4787 122.785 22.468C122.411 22.4467 122.049 22.436 121.697 22.436C121.345 22.436 120.998 22.4467 120.657 22.468C120.326 22.4787 120.075 22.4893 119.905 22.5V22.164C120.289 22.164 120.561 22.084 120.721 21.924C120.881 21.764 120.961 21.46 120.961 21.012V16.388C120.961 16.0573 120.934 15.7533 120.881 15.476C120.827 15.1987 120.705 14.9747 120.513 14.804C120.331 14.6333 120.049 14.548 119.665 14.548C119.217 14.548 118.822 14.676 118.481 14.932C118.15 15.188 117.889 15.54 117.697 15.988C117.515 16.4253 117.425 16.916 117.425 17.46V21.012C117.425 21.46 117.505 21.764 117.665 21.924C117.825 22.084 118.097 22.164 118.481 22.164V22.5C118.31 22.4893 118.054 22.4787 117.713 22.468C117.382 22.4467 117.041 22.436 116.689 22.436C116.337 22.436 115.974 22.4467 115.601 22.468C115.227 22.4787 114.95 22.4893 114.769 22.5V22.164C115.206 22.164 115.515 22.084 115.697 21.924C115.889 21.764 115.985 21.46 115.985 21.012V16.004C115.985 15.524 115.899 15.172 115.729 14.948C115.558 14.7133 115.238 14.596 114.769 14.596V14.26C115.11 14.292 115.441 14.308 115.761 14.308C116.07 14.308 116.363 14.292 116.641 14.26C116.929 14.2173 117.19 14.1587 117.425 14.084V15.972C117.702 15.2467 118.086 14.7453 118.577 14.468C119.078 14.18 119.601 14.036 120.145 14.036Z" fill="white"/>
</svg>
